<?xml version="1.0" encoding="UTF-8" standalone="no"?>
<!DOCTYPE svg PUBLIC "-//W3C//DTD SVG 1.1//EN"
 "http://www.w3.org/Graphics/SVG/1.1/DTD/svg11.dtd">
<!-- Generated by graphviz version 8.0.4 (0)
 -->
<!-- Title: 1 Pages: 1 -->
<svg width="693pt" height="548pt"
 viewBox="0.00 0.00 693.46 548.00" xmlns="http://www.w3.org/2000/svg" xmlns:xlink="http://www.w3.org/1999/xlink">
<g id="graph0" class="graph" transform="scale(1 1) rotate(0) translate(4 544)">
<title>1</title>
<polygon fill="white" stroke="none" points="-4,4 -4,-544 689.46,-544 689.46,4 -4,4"/>
<!-- tempation -->
<g id="node1" class="node">
<title>tempation</title>
<ellipse fill="none" stroke="black" cx="137.57" cy="-522" rx="62.26" ry="18"/>
<text text-anchor="middle" x="137.57" y="-517.33" font-family="Times,serif" font-size="14.00">tempation</text>
</g>
<!-- not filled  -->
<g id="node2" class="node">
<title>not filled </title>
<ellipse fill="none" stroke="black" cx="58.57" cy="-450" rx="58.57" ry="18"/>
<text text-anchor="middle" x="58.57" y="-445.32" font-family="Times,serif" font-size="14.00">not filled </text>
</g>
<!-- tempation&#45;&gt;not filled  -->
<g id="edge1" class="edge">
<title>tempation&#45;&gt;not filled </title>
<path fill="none" stroke="black" d="M118.85,-504.41C108.82,-495.52 96.28,-484.41 85.24,-474.63"/>
<polygon fill="black" stroke="black" points="87.97,-472.48 78.16,-468.47 83.32,-477.72 87.97,-472.48"/>
</g>
<!-- partially filled -->
<g id="node3" class="node">
<title>partially filled</title>
<ellipse fill="none" stroke="black" cx="216.57" cy="-450" rx="81.2" ry="18"/>
<text text-anchor="middle" x="216.57" y="-445.32" font-family="Times,serif" font-size="14.00">partially filled</text>
</g>
<!-- tempation&#45;&gt;partially filled -->
<g id="edge2" class="edge">
<title>tempation&#45;&gt;partially filled</title>
<path fill="none" stroke="black" d="M156.3,-504.41C166.19,-495.65 178.5,-484.73 189.42,-475.06"/>
<polygon fill="black" stroke="black" points="191.27,-478.21 196.44,-468.96 186.63,-472.97 191.27,-478.21"/>
</g>
<!-- lead to purity -->
<g id="node4" class="node">
<title>lead to purity</title>
<ellipse fill="none" stroke="black" cx="231.57" cy="-90" rx="79.09" ry="18"/>
<text text-anchor="middle" x="231.57" y="-85.33" font-family="Times,serif" font-size="14.00">lead to purity</text>
</g>
<!-- life -->
<g id="node5" class="node">
<title>life</title>
<ellipse fill="none" stroke="black" cx="109.57" cy="-18" rx="27.01" ry="18"/>
<text text-anchor="middle" x="109.57" y="-13.32" font-family="Times,serif" font-size="14.00">life</text>
</g>
<!-- lead to purity&#45;&gt;life -->
<g id="edge3" class="edge">
<title>lead to purity&#45;&gt;life</title>
<path fill="none" stroke="black" d="M203.28,-72.76C184.01,-61.71 158.56,-47.11 139.04,-35.91"/>
<polygon fill="black" stroke="black" points="141.13,-32.5 130.72,-30.56 137.65,-38.57 141.13,-32.5"/>
</g>
<!-- body -->
<g id="node6" class="node">
<title>body</title>
<ellipse fill="none" stroke="black" cx="189.57" cy="-18" rx="35.42" ry="18"/>
<text text-anchor="middle" x="189.57" y="-13.32" font-family="Times,serif" font-size="14.00">body</text>
</g>
<!-- lead to purity&#45;&gt;body -->
<g id="edge4" class="edge">
<title>lead to purity&#45;&gt;body</title>
<path fill="none" stroke="black" d="M221.19,-71.7C216.34,-63.61 210.46,-53.81 205.1,-44.87"/>
<polygon fill="black" stroke="black" points="207.69,-43.4 199.55,-36.62 201.69,-47 207.69,-43.4"/>
</g>
<!-- soul -->
<g id="node7" class="node">
<title>soul</title>
<ellipse fill="none" stroke="black" cx="274.57" cy="-18" rx="31.74" ry="18"/>
<text text-anchor="middle" x="274.57" y="-13.32" font-family="Times,serif" font-size="14.00">soul</text>
</g>
<!-- lead to purity&#45;&gt;soul -->
<g id="edge5" class="edge">
<title>lead to purity&#45;&gt;soul</title>
<path fill="none" stroke="black" d="M242.2,-71.7C247.24,-63.49 253.37,-53.52 258.92,-44.48"/>
<polygon fill="black" stroke="black" points="262.4,-46.5 264.66,-36.14 256.44,-42.83 262.4,-46.5"/>
</g>
<!-- heart  -->
<g id="node10" class="node">
<title>heart </title>
<ellipse fill="none" stroke="black" cx="365.57" cy="-18" rx="41.21" ry="18"/>
<text text-anchor="middle" x="365.57" y="-13.32" font-family="Times,serif" font-size="14.00">heart </text>
</g>
<!-- lead to purity&#45;&gt;heart  -->
<g id="edge8" class="edge">
<title>lead to purity&#45;&gt;heart </title>
<path fill="none" stroke="black" d="M262.32,-72.94C282.59,-62.35 309.21,-48.44 330.35,-37.4"/>
<polygon fill="black" stroke="black" points="331.68,-40.13 338.93,-32.4 328.44,-33.93 331.68,-40.13"/>
</g>
<!-- there are parts -->
<g id="node8" class="node">
<title>there are parts</title>
<ellipse fill="#ffffba" stroke="black" cx="310.57" cy="-234" rx="86.98" ry="18"/>
<text text-anchor="middle" x="310.57" y="-229.32" font-family="Times,serif" font-size="14.00">there are parts</text>
</g>
<!-- not filled -->
<g id="node9" class="node">
<title>not filled</title>
<ellipse fill="none" stroke="black" cx="254.57" cy="-162" rx="55.42" ry="18"/>
<text text-anchor="middle" x="254.57" y="-157.32" font-family="Times,serif" font-size="14.00">not filled</text>
</g>
<!-- there are parts&#45;&gt;not filled -->
<g id="edge6" class="edge">
<title>there are parts&#45;&gt;not filled</title>
<path fill="none" stroke="black" d="M297.02,-216.05C290.35,-207.71 282.17,-197.49 274.77,-188.25"/>
<polygon fill="black" stroke="black" points="276.98,-186.41 268,-180.79 271.52,-190.78 276.98,-186.41"/>
</g>
<!-- filled  -->
<g id="node14" class="node">
<title>filled </title>
<ellipse fill="none" stroke="black" cx="379.57" cy="-162" rx="39.11" ry="18"/>
<text text-anchor="middle" x="379.57" y="-157.32" font-family="Times,serif" font-size="14.00">filled </text>
</g>
<!-- there are parts&#45;&gt;filled  -->
<g id="edge12" class="edge">
<title>there are parts&#45;&gt;filled </title>
<path fill="none" stroke="black" d="M327.28,-216.05C336,-207.2 346.82,-196.23 356.34,-186.57"/>
<polygon fill="black" stroke="black" points="358.44,-189.41 362.97,-179.83 353.46,-184.49 358.44,-189.41"/>
</g>
<!-- not filled&#45;&gt;lead to purity -->
<g id="edge7" class="edge">
<title>not filled&#45;&gt;lead to purity</title>
<path fill="none" stroke="black" d="M248.89,-143.7C246.38,-136.07 243.37,-126.92 240.58,-118.4"/>
<polygon fill="black" stroke="black" points="243.64,-117.51 237.19,-109.1 236.99,-119.7 243.64,-117.51"/>
</g>
<!-- what is filled with -->
<g id="node11" class="node">
<title>what is filled with</title>
<ellipse fill="none" stroke="black" cx="416.57" cy="-450" rx="100.66" ry="18"/>
<text text-anchor="middle" x="416.57" y="-445.32" font-family="Times,serif" font-size="14.00">what is filled with</text>
</g>
<!-- filled -->
<g id="node12" class="node">
<title>filled</title>
<ellipse fill="#ffffba" stroke="black" cx="310.57" cy="-378" rx="35.95" ry="18"/>
<text text-anchor="middle" x="310.57" y="-373.32" font-family="Times,serif" font-size="14.00">filled</text>
</g>
<!-- what is filled with&#45;&gt;filled -->
<g id="edge9" class="edge">
<title>what is filled with&#45;&gt;filled</title>
<path fill="none" stroke="black" d="M391.18,-432.23C375.93,-422.16 356.43,-409.28 340.44,-398.72"/>
<polygon fill="black" stroke="black" points="342.76,-395.4 332.48,-392.81 338.9,-401.24 342.76,-395.4"/>
</g>
<!-- the mouth say -->
<g id="node17" class="node">
<title>the mouth say</title>
<ellipse fill="none" stroke="black" cx="447.57" cy="-378" rx="82.77" ry="18"/>
<text text-anchor="middle" x="447.57" y="-373.32" font-family="Times,serif" font-size="14.00">the mouth say</text>
</g>
<!-- what is filled with&#45;&gt;the mouth say -->
<g id="edge15" class="edge">
<title>what is filled with&#45;&gt;the mouth say</title>
<path fill="none" stroke="black" d="M424.24,-431.7C427.65,-423.98 431.76,-414.71 435.57,-406.11"/>
<polygon fill="black" stroke="black" points="439.15,-407.67 440,-397.1 432.75,-404.83 439.15,-407.67"/>
</g>
<!-- temptation -->
<g id="node13" class="node">
<title>temptation</title>
<ellipse fill="none" stroke="black" cx="310.57" cy="-306" rx="66.47" ry="18"/>
<text text-anchor="middle" x="310.57" y="-301.32" font-family="Times,serif" font-size="14.00">temptation</text>
</g>
<!-- filled&#45;&gt;temptation -->
<g id="edge10" class="edge">
<title>filled&#45;&gt;temptation</title>
<path fill="none" stroke="black" d="M310.57,-359.7C310.57,-352.24 310.57,-343.32 310.57,-334.97"/>
<polygon fill="black" stroke="black" points="314.07,-335.1 310.57,-325.1 307.07,-335.1 314.07,-335.1"/>
</g>
<!-- temptation&#45;&gt;there are parts -->
<g id="edge11" class="edge">
<title>temptation&#45;&gt;there are parts</title>
<path fill="none" stroke="black" d="M310.57,-287.7C310.57,-280.24 310.57,-271.32 310.57,-262.97"/>
<polygon fill="black" stroke="black" points="314.07,-263.1 310.57,-253.1 307.07,-263.1 314.07,-263.1"/>
</g>
<!-- lead to sin -->
<g id="node15" class="node">
<title>lead to sin</title>
<ellipse fill="none" stroke="black" cx="391.57" cy="-90" rx="63.31" ry="18"/>
<text text-anchor="middle" x="391.57" y="-85.33" font-family="Times,serif" font-size="14.00">lead to sin</text>
</g>
<!-- filled &#45;&gt;lead to sin -->
<g id="edge13" class="edge">
<title>filled &#45;&gt;lead to sin</title>
<path fill="none" stroke="black" d="M382.54,-143.7C383.83,-136.15 385.38,-127.12 386.83,-118.68"/>
<polygon fill="black" stroke="black" points="390.4,-119.55 388.64,-109.1 383.5,-118.37 390.4,-119.55"/>
</g>
<!-- heart -->
<g id="node16" class="node">
<title>heart</title>
<ellipse fill="#ffffba" stroke="black" cx="513.57" cy="-522" rx="38.06" ry="18"/>
<text text-anchor="middle" x="513.57" y="-517.33" font-family="Times,serif" font-size="14.00">heart</text>
</g>
<!-- heart&#45;&gt;what is filled with -->
<g id="edge14" class="edge">
<title>heart&#45;&gt;what is filled with</title>
<path fill="none" stroke="black" d="M493.48,-506.5C480.61,-497.21 463.62,-484.95 448.89,-474.32"/>
<polygon fill="black" stroke="black" points="451.22,-470.96 441.06,-467.95 447.12,-476.64 451.22,-470.96"/>
</g>
<!-- from it come -->
<g id="node18" class="node">
<title>from it come</title>
<ellipse fill="none" stroke="black" cx="610.57" cy="-450" rx="74.88" ry="18"/>
<text text-anchor="middle" x="610.57" y="-445.32" font-family="Times,serif" font-size="14.00">from it come</text>
</g>
<!-- heart&#45;&gt;from it come -->
<g id="edge16" class="edge">
<title>heart&#45;&gt;from it come</title>
<path fill="none" stroke="black" d="M533.67,-506.5C546.72,-497.08 564.01,-484.6 578.89,-473.87"/>
<polygon fill="black" stroke="black" points="580.72,-476.14 586.78,-467.45 576.62,-470.46 580.72,-476.14"/>
</g>
<!-- sins -->
<g id="node19" class="node">
<title>sins</title>
<ellipse fill="none" stroke="black" cx="610.57" cy="-378" rx="31.22" ry="18"/>
<text text-anchor="middle" x="610.57" y="-373.32" font-family="Times,serif" font-size="14.00">sins</text>
</g>
<!-- from it come&#45;&gt;sins -->
<g id="edge17" class="edge">
<title>from it come&#45;&gt;sins</title>
<path fill="none" stroke="black" d="M610.57,-431.7C610.57,-424.24 610.57,-415.32 610.57,-406.97"/>
<polygon fill="black" stroke="black" points="614.07,-407.1 610.57,-397.1 607.07,-407.1 614.07,-407.1"/>
</g>
</g>
</svg>
