<?xml version="1.0" encoding="UTF-8" standalone="no"?>
<!DOCTYPE svg PUBLIC "-//W3C//DTD SVG 1.1//EN"
 "http://www.w3.org/Graphics/SVG/1.1/DTD/svg11.dtd">
<!-- Generated by graphviz version 8.0.4 (0)
 -->
<!-- Title: 1 Pages: 1 -->
<svg width="502pt" height="476pt"
 viewBox="0.00 0.00 501.98 476.00" xmlns="http://www.w3.org/2000/svg" xmlns:xlink="http://www.w3.org/1999/xlink">
<g id="graph0" class="graph" transform="scale(1 1) rotate(0) translate(4 472)">
<title>1</title>
<polygon fill="white" stroke="none" points="-4,4 -4,-472 497.98,-472 497.98,4 -4,4"/>
<!-- lead to purity -->
<g id="node1" class="node">
<title>lead to purity</title>
<ellipse fill="none" stroke="black" cx="302.98" cy="-450" rx="79.09" ry="18"/>
<text text-anchor="middle" x="302.98" y="-445.32" font-family="Times,serif" font-size="14.00">lead to purity</text>
</g>
<!-- life -->
<g id="node2" class="node">
<title>life</title>
<ellipse fill="none" stroke="black" cx="137.98" cy="-378" rx="27.01" ry="18"/>
<text text-anchor="middle" x="137.98" y="-373.32" font-family="Times,serif" font-size="14.00">life</text>
</g>
<!-- lead to purity&#45;&gt;life -->
<g id="edge1" class="edge">
<title>lead to purity&#45;&gt;life</title>
<path fill="none" stroke="black" d="M264.67,-433.86C238.89,-423.52 204.22,-409.34 173.98,-396 172.52,-395.35 171.03,-394.69 169.53,-394.01"/>
<polygon fill="black" stroke="black" points="171.15,-390.44 160.6,-389.43 168.22,-396.8 171.15,-390.44"/>
</g>
<!-- body -->
<g id="node3" class="node">
<title>body</title>
<ellipse fill="none" stroke="black" cx="217.98" cy="-378" rx="35.42" ry="18"/>
<text text-anchor="middle" x="217.98" y="-373.32" font-family="Times,serif" font-size="14.00">body</text>
</g>
<!-- lead to purity&#45;&gt;body -->
<g id="edge2" class="edge">
<title>lead to purity&#45;&gt;body</title>
<path fill="none" stroke="black" d="M282.84,-432.41C271.27,-422.88 256.62,-410.81 244.16,-400.56"/>
<polygon fill="black" stroke="black" points="246.9,-397.46 236.96,-393.8 242.45,-402.86 246.9,-397.46"/>
</g>
<!-- soul -->
<g id="node4" class="node">
<title>soul</title>
<ellipse fill="none" stroke="black" cx="302.98" cy="-378" rx="31.74" ry="18"/>
<text text-anchor="middle" x="302.98" y="-373.32" font-family="Times,serif" font-size="14.00">soul</text>
</g>
<!-- lead to purity&#45;&gt;soul -->
<g id="edge3" class="edge">
<title>lead to purity&#45;&gt;soul</title>
<path fill="none" stroke="black" d="M302.98,-431.7C302.98,-424.24 302.98,-415.32 302.98,-406.97"/>
<polygon fill="black" stroke="black" points="306.48,-407.1 302.98,-397.1 299.48,-407.1 306.48,-407.1"/>
</g>
<!-- heart -->
<g id="node7" class="node">
<title>heart</title>
<ellipse fill="#ffffba" stroke="black" cx="390.98" cy="-378" rx="38.06" ry="18"/>
<text text-anchor="middle" x="390.98" y="-373.32" font-family="Times,serif" font-size="14.00">heart</text>
</g>
<!-- lead to purity&#45;&gt;heart -->
<g id="edge6" class="edge">
<title>lead to purity&#45;&gt;heart</title>
<path fill="none" stroke="black" d="M323.84,-432.41C335.73,-422.95 350.78,-410.98 363.61,-400.77"/>
<polygon fill="black" stroke="black" points="365.43,-403 371.08,-394.04 361.07,-397.52 365.43,-403"/>
</g>
<!-- there are parts -->
<g id="node5" class="node">
<title>there are parts</title>
<ellipse fill="#ffffba" stroke="black" cx="86.98" cy="-90" rx="86.98" ry="18"/>
<text text-anchor="middle" x="86.98" y="-85.33" font-family="Times,serif" font-size="14.00">there are parts</text>
</g>
<!-- not filled -->
<g id="node6" class="node">
<title>not filled</title>
<ellipse fill="none" stroke="black" cx="201.98" cy="-18" rx="55.42" ry="18"/>
<text text-anchor="middle" x="201.98" y="-13.32" font-family="Times,serif" font-size="14.00">not filled</text>
</g>
<!-- there are parts&#45;&gt;not filled -->
<g id="edge4" class="edge">
<title>there are parts&#45;&gt;not filled</title>
<path fill="none" stroke="black" d="M113.95,-72.59C129.97,-62.84 150.44,-50.37 167.61,-39.92"/>
<polygon fill="black" stroke="black" points="169.04,-42.54 175.77,-34.35 165.4,-36.56 169.04,-42.54"/>
</g>
<!-- filled -->
<g id="node9" class="node">
<title>filled</title>
<ellipse fill="#ffffba" stroke="black" cx="133.98" cy="-234" rx="35.95" ry="18"/>
<text text-anchor="middle" x="133.98" y="-229.32" font-family="Times,serif" font-size="14.00">filled</text>
</g>
<!-- there are parts&#45;&gt;filled -->
<g id="edge8" class="edge">
<title>there are parts&#45;&gt;filled</title>
<path fill="none" stroke="black" d="M89.26,-108.45C91.96,-126.69 97.25,-155.94 105.98,-180 109.27,-189.04 113.83,-198.46 118.32,-206.81"/>
<polygon fill="black" stroke="black" points="115.73,-208.35 123.67,-215.36 121.83,-204.93 115.73,-208.35"/>
</g>
<!-- not filled&#45;&gt;lead to purity -->
<g id="edge5" class="edge">
<title>not filled&#45;&gt;lead to purity</title>
<path fill="none" stroke="black" d="M256.56,-21.61C341.08,-28.92 493.98,-56.57 493.98,-161 493.98,-307 493.98,-307 493.98,-307 493.98,-353.73 473.98,-366.19 437.98,-396 417.54,-412.93 391.03,-424.91 366.93,-433.14"/>
<polygon fill="black" stroke="black" points="366.2,-430.02 357.77,-436.44 368.36,-436.68 366.2,-430.02"/>
</g>
<!-- what is filled with -->
<g id="node12" class="node">
<title>what is filled with</title>
<ellipse fill="none" stroke="black" cx="196.98" cy="-306" rx="100.66" ry="18"/>
<text text-anchor="middle" x="196.98" y="-301.32" font-family="Times,serif" font-size="14.00">what is filled with</text>
</g>
<!-- heart&#45;&gt;what is filled with -->
<g id="edge14" class="edge">
<title>heart&#45;&gt;what is filled with</title>
<path fill="none" stroke="black" d="M361.4,-366.29C355.62,-364.21 349.61,-362.03 343.98,-360 313.1,-348.85 278.56,-336.39 250.72,-326.36"/>
<polygon fill="black" stroke="black" points="252,-322.74 241.41,-322.64 249.63,-329.33 252,-322.74"/>
</g>
<!-- from it come -->
<g id="node14" class="node">
<title>from it come</title>
<ellipse fill="none" stroke="black" cx="390.98" cy="-306" rx="74.88" ry="18"/>
<text text-anchor="middle" x="390.98" y="-301.32" font-family="Times,serif" font-size="14.00">from it come</text>
</g>
<!-- heart&#45;&gt;from it come -->
<g id="edge16" class="edge">
<title>heart&#45;&gt;from it come</title>
<path fill="none" stroke="black" d="M390.98,-359.7C390.98,-352.24 390.98,-343.32 390.98,-334.97"/>
<polygon fill="black" stroke="black" points="394.48,-335.1 390.98,-325.1 387.48,-335.1 394.48,-335.1"/>
</g>
<!-- temptation -->
<g id="node8" class="node">
<title>temptation</title>
<ellipse fill="none" stroke="black" cx="180.98" cy="-162" rx="66.47" ry="18"/>
<text text-anchor="middle" x="180.98" y="-157.32" font-family="Times,serif" font-size="14.00">temptation</text>
</g>
<!-- temptation&#45;&gt;there are parts -->
<g id="edge7" class="edge">
<title>temptation&#45;&gt;there are parts</title>
<path fill="none" stroke="black" d="M159.18,-144.76C146.9,-135.62 131.37,-124.05 117.85,-113.99"/>
<polygon fill="black" stroke="black" points="120.43,-110.8 110.32,-107.63 116.25,-116.41 120.43,-110.8"/>
</g>
<!-- temptation&#45;&gt;not filled -->
<g id="edge13" class="edge">
<title>temptation&#45;&gt;not filled</title>
<path fill="none" stroke="black" d="M183.56,-143.59C187.14,-119.4 193.65,-75.36 197.89,-46.65"/>
<polygon fill="black" stroke="black" points="201.45,-47.52 199.45,-37.11 194.53,-46.49 201.45,-47.52"/>
</g>
<!-- partially filled -->
<g id="node11" class="node">
<title>partially filled</title>
<ellipse fill="none" stroke="black" cx="310.98" cy="-90" rx="81.2" ry="18"/>
<text text-anchor="middle" x="310.98" y="-85.33" font-family="Times,serif" font-size="14.00">partially filled</text>
</g>
<!-- temptation&#45;&gt;partially filled -->
<g id="edge10" class="edge">
<title>temptation&#45;&gt;partially filled</title>
<path fill="none" stroke="black" d="M209.83,-145.46C228.09,-135.63 251.93,-122.8 271.87,-112.06"/>
<polygon fill="black" stroke="black" points="273.17,-114.8 280.31,-106.98 269.85,-108.64 273.17,-114.8"/>
</g>
<!-- filled&#45;&gt;temptation -->
<g id="edge12" class="edge">
<title>filled&#45;&gt;temptation</title>
<path fill="none" stroke="black" d="M145.12,-216.41C150.6,-208.25 157.34,-198.22 163.48,-189.07"/>
<polygon fill="black" stroke="black" points="166.93,-191.21 169.6,-180.96 161.12,-187.31 166.93,-191.21"/>
</g>
<!-- lead to sin -->
<g id="node10" class="node">
<title>lead to sin</title>
<ellipse fill="none" stroke="black" cx="328.98" cy="-162" rx="63.31" ry="18"/>
<text text-anchor="middle" x="328.98" y="-157.32" font-family="Times,serif" font-size="14.00">lead to sin</text>
</g>
<!-- filled&#45;&gt;lead to sin -->
<g id="edge9" class="edge">
<title>filled&#45;&gt;lead to sin</title>
<path fill="none" stroke="black" d="M162.03,-222.3C167.64,-220.19 173.49,-218.01 178.98,-216 212.63,-203.7 250.69,-190.26 280.05,-179.99"/>
<polygon fill="black" stroke="black" points="280.77,-183.1 289.05,-176.5 278.46,-176.49 280.77,-183.1"/>
</g>
<!-- what is filled with&#45;&gt;filled -->
<g id="edge11" class="edge">
<title>what is filled with&#45;&gt;filled</title>
<path fill="none" stroke="black" d="M181.73,-288.05C173.85,-279.29 164.09,-268.45 155.45,-258.86"/>
<polygon fill="black" stroke="black" points="158.52,-256.92 149.23,-251.83 153.32,-261.6 158.52,-256.92"/>
</g>
<!-- the mouth says -->
<g id="node13" class="node">
<title>the mouth says</title>
<ellipse fill="none" stroke="black" cx="275.98" cy="-234" rx="88.04" ry="18"/>
<text text-anchor="middle" x="275.98" y="-229.32" font-family="Times,serif" font-size="14.00">the mouth says</text>
</g>
<!-- what is filled with&#45;&gt;the mouth says -->
<g id="edge15" class="edge">
<title>what is filled with&#45;&gt;the mouth says</title>
<path fill="none" stroke="black" d="M216.11,-288.05C225.84,-279.43 237.84,-268.8 248.53,-259.32"/>
<polygon fill="black" stroke="black" points="250.6,-262.28 255.76,-253.03 245.96,-257.04 250.6,-262.28"/>
</g>
<!-- sins -->
<g id="node15" class="node">
<title>sins</title>
<ellipse fill="none" stroke="black" cx="412.98" cy="-234" rx="31.22" ry="18"/>
<text text-anchor="middle" x="412.98" y="-229.32" font-family="Times,serif" font-size="14.00">sins</text>
</g>
<!-- from it come&#45;&gt;sins -->
<g id="edge17" class="edge">
<title>from it come&#45;&gt;sins</title>
<path fill="none" stroke="black" d="M396.42,-287.7C398.82,-280.07 401.7,-270.92 404.37,-262.4"/>
<polygon fill="black" stroke="black" points="407.95,-263.69 407.61,-253.1 401.27,-261.59 407.95,-263.69"/>
</g>
</g>
</svg>
