<?xml version="1.0" encoding="UTF-8" standalone="no"?>
<!DOCTYPE svg PUBLIC "-//W3C//DTD SVG 1.1//EN"
 "http://www.w3.org/Graphics/SVG/1.1/DTD/svg11.dtd">
<!-- Generated by graphviz version 8.0.4 (0)
 -->
<!-- Title: 1 Pages: 1 -->
<svg width="189pt" height="180pt"
 viewBox="0.00 0.00 189.13 179.58" xmlns="http://www.w3.org/2000/svg" xmlns:xlink="http://www.w3.org/1999/xlink">
<g id="graph0" class="graph" transform="scale(1 1) rotate(0) translate(4 175.58)">
<title>1</title>
<polygon fill="white" stroke="none" points="-4,4 -4,-175.58 185.13,-175.58 185.13,4 -4,4"/>
<!-- heart -->
<g id="node1" class="node">
<title>heart</title>
<ellipse fill="#ffffba" stroke="black" cx="38.06" cy="-73.68" rx="38.06" ry="18"/>
<text text-anchor="middle" x="38.06" y="-69" font-family="Times,serif" font-size="14.00">heart</text>
</g>
<!-- look -->
<g id="node2" class="node">
<title>look</title>
<ellipse fill="none" stroke="black" cx="149.39" cy="-77.02" rx="31.74" ry="18"/>
<text text-anchor="middle" x="149.39" y="-72.35" font-family="Times,serif" font-size="14.00">look</text>
</g>
<!-- heart&#45;&gt;look -->
<g id="edge1" class="edge">
<title>heart&#45;&gt;look</title>
<path fill="none" stroke="black" d="M76.37,-74.83C86.06,-75.12 96.53,-75.43 106.43,-75.73"/>
<polygon fill="black" stroke="black" points="106.19,-79.25 116.29,-76.06 106.4,-72.26 106.19,-79.25"/>
</g>
<!-- lust -->
<g id="node4" class="node">
<title>lust</title>
<ellipse fill="none" stroke="black" cx="66.26" cy="-153.58" rx="30.16" ry="18"/>
<text text-anchor="middle" x="66.26" y="-148.91" font-family="Times,serif" font-size="14.00">lust</text>
</g>
<!-- heart&#45;&gt;lust -->
<g id="edge3" class="edge">
<title>heart&#45;&gt;lust</title>
<path fill="none" stroke="black" d="M44.45,-91.81C47.95,-101.72 52.36,-114.21 56.3,-125.37"/>
<polygon fill="black" stroke="black" points="53.26,-126.26 59.88,-134.52 59.86,-123.93 53.26,-126.26"/>
</g>
<!-- adultery -->
<g id="node3" class="node">
<title>adultery</title>
<ellipse fill="none" stroke="black" cx="97.95" cy="-18" rx="53.31" ry="18"/>
<text text-anchor="middle" x="97.95" y="-13.32" font-family="Times,serif" font-size="14.00">adultery</text>
</g>
<!-- look&#45;&gt;adultery -->
<g id="edge2" class="edge">
<title>look&#45;&gt;adultery</title>
<path fill="none" stroke="black" d="M135.06,-60.58C130.51,-55.35 125.36,-49.44 120.37,-43.73"/>
<polygon fill="black" stroke="black" points="122.49,-41.83 113.28,-36.59 117.21,-46.43 122.49,-41.83"/>
</g>
<!-- lust&#45;&gt;adultery -->
<g id="edge4" class="edge">
<title>lust&#45;&gt;adultery</title>
<path fill="none" stroke="black" d="M70.53,-135.3C75.83,-112.65 84.91,-73.81 91.16,-47.07"/>
<polygon fill="black" stroke="black" points="94.78,-47.96 93.64,-37.43 87.96,-46.37 94.78,-47.96"/>
</g>
</g>
</svg>
