<?xml version="1.0" encoding="UTF-8" standalone="no"?>
<!DOCTYPE svg PUBLIC "-//W3C//DTD SVG 1.1//EN"
 "http://www.w3.org/Graphics/SVG/1.1/DTD/svg11.dtd">
<!-- Generated by graphviz version 8.0.4 (0)
 -->
<!-- Title: 1 Pages: 1 -->
<svg width="801pt" height="476pt"
 viewBox="0.00 0.00 801.23 476.00" xmlns="http://www.w3.org/2000/svg" xmlns:xlink="http://www.w3.org/1999/xlink">
<g id="graph0" class="graph" transform="scale(1 1) rotate(0) translate(4 472)">
<title>1</title>
<polygon fill="white" stroke="none" points="-4,4 -4,-472 797.23,-472 797.23,4 -4,4"/>
<!-- look -->
<g id="node1" class="node">
<title>look</title>
<ellipse fill="#ffffba" stroke="black" cx="301.36" cy="-378" rx="31.74" ry="18"/>
<text text-anchor="middle" x="301.36" y="-373.32" font-family="Times,serif" font-size="14.00">look</text>
</g>
<!-- to the purity -->
<g id="node2" class="node">
<title>to the purity</title>
<ellipse fill="none" stroke="black" cx="74.36" cy="-306" rx="74.36" ry="18"/>
<text text-anchor="middle" x="74.36" y="-301.32" font-family="Times,serif" font-size="14.00">to the purity</text>
</g>
<!-- look&#45;&gt;to the purity -->
<g id="edge1" class="edge">
<title>look&#45;&gt;to the purity</title>
<path fill="none" stroke="black" d="M273.98,-368.56C238.31,-357.56 175.13,-338.07 129.38,-323.97"/>
<polygon fill="black" stroke="black" points="130.62,-320.38 120.03,-320.78 128.55,-327.07 130.62,-320.38"/>
</g>
<!-- to the sin -->
<g id="node4" class="node">
<title>to the sin</title>
<ellipse fill="none" stroke="black" cx="236.36" cy="-306" rx="58.57" ry="18"/>
<text text-anchor="middle" x="236.36" y="-301.32" font-family="Times,serif" font-size="14.00">to the sin</text>
</g>
<!-- look&#45;&gt;to the sin -->
<g id="edge3" class="edge">
<title>look&#45;&gt;to the sin</title>
<path fill="none" stroke="black" d="M286.93,-361.46C278.75,-352.65 268.33,-341.43 259.07,-331.46"/>
<polygon fill="black" stroke="black" points="262.02,-329.41 252.65,-324.47 256.89,-334.18 262.02,-329.41"/>
</g>
<!-- eye -->
<g id="node12" class="node">
<title>eye</title>
<ellipse fill="#ffffba" stroke="black" cx="346.36" cy="-306" rx="28.59" ry="18"/>
<text text-anchor="middle" x="346.36" y="-301.32" font-family="Times,serif" font-size="14.00">eye</text>
</g>
<!-- look&#45;&gt;eye -->
<g id="edge15" class="edge">
<title>look&#45;&gt;eye</title>
<path fill="none" stroke="black" d="M311.79,-360.76C317.25,-352.28 324.04,-341.71 330.16,-332.2"/>
<polygon fill="black" stroke="black" points="333.51,-334.45 335.98,-324.15 327.62,-330.67 333.51,-334.45"/>
</g>
<!-- struggle -->
<g id="node3" class="node">
<title>struggle</title>
<ellipse fill="none" stroke="black" cx="68.36" cy="-234" rx="53.31" ry="18"/>
<text text-anchor="middle" x="68.36" y="-229.32" font-family="Times,serif" font-size="14.00">struggle</text>
</g>
<!-- to the purity&#45;&gt;struggle -->
<g id="edge2" class="edge">
<title>to the purity&#45;&gt;struggle</title>
<path fill="none" stroke="black" d="M72.87,-287.7C72.23,-280.24 71.47,-271.32 70.75,-262.97"/>
<polygon fill="black" stroke="black" points="74.16,-262.77 69.82,-253.1 67.19,-263.37 74.16,-262.77"/>
</g>
<!-- temptation -->
<g id="node5" class="node">
<title>temptation</title>
<ellipse fill="none" stroke="black" cx="206.36" cy="-234" rx="66.47" ry="18"/>
<text text-anchor="middle" x="206.36" y="-229.32" font-family="Times,serif" font-size="14.00">temptation</text>
</g>
<!-- to the sin&#45;&gt;temptation -->
<g id="edge4" class="edge">
<title>to the sin&#45;&gt;temptation</title>
<path fill="none" stroke="black" d="M228.94,-287.7C225.64,-279.98 221.66,-270.71 217.98,-262.11"/>
<polygon fill="black" stroke="black" points="220.84,-260.92 213.69,-253.1 214.41,-263.67 220.84,-260.92"/>
</g>
<!-- leg -->
<g id="node6" class="node">
<title>leg</title>
<ellipse fill="#ffffba" stroke="black" cx="305.36" cy="-162" rx="27" ry="18"/>
<text text-anchor="middle" x="305.36" y="-157.32" font-family="Times,serif" font-size="14.00">leg</text>
</g>
<!-- right  -->
<g id="node7" class="node">
<title>right </title>
<ellipse fill="none" stroke="black" cx="302.36" cy="-90" rx="39.11" ry="18"/>
<text text-anchor="middle" x="302.36" y="-85.33" font-family="Times,serif" font-size="14.00">right </text>
</g>
<!-- leg&#45;&gt;right  -->
<g id="edge5" class="edge">
<title>leg&#45;&gt;right </title>
<path fill="none" stroke="black" d="M304.62,-143.7C304.3,-136.24 303.91,-127.32 303.56,-118.97"/>
<polygon fill="black" stroke="black" points="307.01,-118.95 303.09,-109.1 300.02,-119.25 307.01,-118.95"/>
</g>
<!-- left  -->
<g id="node10" class="node">
<title>left </title>
<ellipse fill="none" stroke="black" cx="390.36" cy="-90" rx="31.22" ry="18"/>
<text text-anchor="middle" x="390.36" y="-85.33" font-family="Times,serif" font-size="14.00">left </text>
</g>
<!-- leg&#45;&gt;left  -->
<g id="edge8" class="edge">
<title>leg&#45;&gt;left </title>
<path fill="none" stroke="black" d="M321.75,-147.5C333.89,-137.5 350.68,-123.67 364.61,-112.2"/>
<polygon fill="black" stroke="black" points="366.35,-114.48 371.85,-105.42 361.9,-109.07 366.35,-114.48"/>
</g>
<!-- if tempts -->
<g id="node8" class="node">
<title>if tempts</title>
<ellipse fill="none" stroke="black" cx="302.36" cy="-18" rx="56.47" ry="18"/>
<text text-anchor="middle" x="302.36" y="-13.32" font-family="Times,serif" font-size="14.00">if tempts</text>
</g>
<!-- right &#45;&gt;if tempts -->
<g id="edge6" class="edge">
<title>right &#45;&gt;if tempts</title>
<path fill="none" stroke="black" d="M302.36,-71.7C302.36,-64.24 302.36,-55.32 302.36,-46.97"/>
<polygon fill="black" stroke="black" points="305.86,-47.1 302.36,-37.1 298.86,-47.1 305.86,-47.1"/>
</g>
<!-- here, too -->
<g id="node9" class="node">
<title>here, too</title>
<ellipse fill="none" stroke="black" cx="346.36" cy="-234" rx="55.94" ry="18"/>
<text text-anchor="middle" x="346.36" y="-229.32" font-family="Times,serif" font-size="14.00">here, too</text>
</g>
<!-- here, too&#45;&gt;leg -->
<g id="edge7" class="edge">
<title>here, too&#45;&gt;leg</title>
<path fill="none" stroke="black" d="M336.43,-216.05C331.63,-207.85 325.76,-197.83 320.42,-188.71"/>
<polygon fill="black" stroke="black" points="322.98,-187.17 314.91,-180.31 316.94,-190.7 322.98,-187.17"/>
</g>
<!-- hand -->
<g id="node11" class="node">
<title>hand</title>
<ellipse fill="#ffffba" stroke="black" cx="386.36" cy="-162" rx="35.95" ry="18"/>
<text text-anchor="middle" x="386.36" y="-157.32" font-family="Times,serif" font-size="14.00">hand</text>
</g>
<!-- here, too&#45;&gt;hand -->
<g id="edge11" class="edge">
<title>here, too&#45;&gt;hand</title>
<path fill="none" stroke="black" d="M356.04,-216.05C360.66,-207.97 366.29,-198.12 371.44,-189.11"/>
<polygon fill="black" stroke="black" points="374.84,-191.21 376.76,-180.79 368.76,-187.73 374.84,-191.21"/>
</g>
<!-- hand&#45;&gt;right  -->
<g id="edge9" class="edge">
<title>hand&#45;&gt;right </title>
<path fill="none" stroke="black" d="M368.54,-146.15C357.01,-136.54 341.78,-123.85 328.84,-113.07"/>
<polygon fill="black" stroke="black" points="331.65,-110.02 321.73,-106.31 327.17,-115.4 331.65,-110.02"/>
</g>
<!-- hand&#45;&gt;left  -->
<g id="edge12" class="edge">
<title>hand&#45;&gt;left </title>
<path fill="none" stroke="black" d="M387.35,-143.7C387.77,-136.24 388.28,-127.32 388.76,-118.97"/>
<polygon fill="black" stroke="black" points="392.3,-119.29 389.38,-109.1 385.31,-118.89 392.3,-119.29"/>
</g>
<!-- eye&#45;&gt;here, too -->
<g id="edge10" class="edge">
<title>eye&#45;&gt;here, too</title>
<path fill="none" stroke="black" d="M346.36,-287.7C346.36,-280.24 346.36,-271.32 346.36,-262.97"/>
<polygon fill="black" stroke="black" points="349.86,-263.1 346.36,-253.1 342.86,-263.1 349.86,-263.1"/>
</g>
<!-- right -->
<g id="node13" class="node">
<title>right</title>
<ellipse fill="none" stroke="black" cx="456.36" cy="-234" rx="35.95" ry="18"/>
<text text-anchor="middle" x="456.36" y="-229.32" font-family="Times,serif" font-size="14.00">right</text>
</g>
<!-- eye&#45;&gt;right -->
<g id="edge13" class="edge">
<title>eye&#45;&gt;right</title>
<path fill="none" stroke="black" d="M366.02,-292.49C382.62,-281.92 406.67,-266.62 425.78,-254.46"/>
<polygon fill="black" stroke="black" points="427.43,-256.92 433.98,-248.6 423.67,-251.02 427.43,-256.92"/>
</g>
<!-- left -->
<g id="node15" class="node">
<title>left</title>
<ellipse fill="none" stroke="black" cx="538.36" cy="-234" rx="28.06" ry="18"/>
<text text-anchor="middle" x="538.36" y="-229.32" font-family="Times,serif" font-size="14.00">left</text>
</g>
<!-- eye&#45;&gt;left -->
<g id="edge16" class="edge">
<title>eye&#45;&gt;left</title>
<path fill="none" stroke="black" d="M368.46,-294.26C373.31,-292.06 378.47,-289.86 383.36,-288 434.61,-268.51 450.11,-271.49 501.36,-252 503.08,-251.34 504.84,-250.64 506.61,-249.92"/>
<polygon fill="black" stroke="black" points="507.87,-252.75 515.65,-245.56 505.08,-246.33 507.87,-252.75"/>
</g>
<!-- heart -->
<g id="node14" class="node">
<title>heart</title>
<ellipse fill="#ffffba" stroke="black" cx="468.36" cy="-450" rx="38.06" ry="18"/>
<text text-anchor="middle" x="468.36" y="-445.32" font-family="Times,serif" font-size="14.00">heart</text>
</g>
<!-- heart&#45;&gt;look -->
<g id="edge14" class="edge">
<title>heart&#45;&gt;look</title>
<path fill="none" stroke="black" d="M440.4,-437.28C411.79,-425.29 367.25,-406.62 336.32,-393.65"/>
<polygon fill="black" stroke="black" points="337.97,-390.13 327.39,-389.49 335.26,-396.59 337.97,-390.13"/>
</g>
<!-- parts of the body -->
<g id="node16" class="node">
<title>parts of the body</title>
<ellipse fill="#ffffba" stroke="black" cx="468.36" cy="-378" rx="96.98" ry="18"/>
<text text-anchor="middle" x="468.36" y="-373.32" font-family="Times,serif" font-size="14.00">parts of the body</text>
</g>
<!-- heart&#45;&gt;parts of the body -->
<g id="edge19" class="edge">
<title>heart&#45;&gt;parts of the body</title>
<path fill="none" stroke="black" d="M468.36,-431.7C468.36,-424.24 468.36,-415.32 468.36,-406.97"/>
<polygon fill="black" stroke="black" points="471.86,-407.1 468.36,-397.1 464.86,-407.1 471.86,-407.1"/>
</g>
<!-- adultery or fidelity -->
<g id="node20" class="node">
<title>adultery or fidelity</title>
<ellipse fill="none" stroke="black" cx="688.36" cy="-378" rx="104.87" ry="18"/>
<text text-anchor="middle" x="688.36" y="-373.32" font-family="Times,serif" font-size="14.00">adultery or fidelity</text>
</g>
<!-- heart&#45;&gt;adultery or fidelity -->
<g id="edge21" class="edge">
<title>heart&#45;&gt;adultery or fidelity</title>
<path fill="none" stroke="black" d="M499.41,-439.12C533.15,-428.38 587.83,-410.98 629.71,-397.66"/>
<polygon fill="black" stroke="black" points="630.6,-400.73 639.06,-394.37 628.47,-394.06 630.6,-400.73"/>
</g>
<!-- legs -->
<g id="node17" class="node">
<title>legs</title>
<ellipse fill="none" stroke="black" cx="424.36" cy="-306" rx="31.74" ry="18"/>
<text text-anchor="middle" x="424.36" y="-301.32" font-family="Times,serif" font-size="14.00">legs</text>
</g>
<!-- parts of the body&#45;&gt;legs -->
<g id="edge17" class="edge">
<title>parts of the body&#45;&gt;legs</title>
<path fill="none" stroke="black" d="M457.48,-359.7C452.27,-351.4 445.92,-341.31 440.19,-332.19"/>
<polygon fill="black" stroke="black" points="442.79,-330.75 434.5,-324.14 436.86,-334.47 442.79,-330.75"/>
</g>
<!-- hands -->
<g id="node18" class="node">
<title>hands</title>
<ellipse fill="none" stroke="black" cx="515.36" cy="-306" rx="41.21" ry="18"/>
<text text-anchor="middle" x="515.36" y="-301.32" font-family="Times,serif" font-size="14.00">hands</text>
</g>
<!-- parts of the body&#45;&gt;hands -->
<g id="edge18" class="edge">
<title>parts of the body&#45;&gt;hands</title>
<path fill="none" stroke="black" d="M479.97,-359.7C485.46,-351.52 492.12,-341.6 498.18,-332.58"/>
<polygon fill="black" stroke="black" points="501.53,-334.88 504.2,-324.62 495.72,-330.97 501.53,-334.88"/>
</g>
<!-- eyes -->
<g id="node19" class="node">
<title>eyes</title>
<ellipse fill="none" stroke="black" cx="608.36" cy="-306" rx="33.85" ry="18"/>
<text text-anchor="middle" x="608.36" y="-301.32" font-family="Times,serif" font-size="14.00">eyes</text>
</g>
<!-- parts of the body&#45;&gt;eyes -->
<g id="edge20" class="edge">
<title>parts of the body&#45;&gt;eyes</title>
<path fill="none" stroke="black" d="M501.18,-360.59C523.33,-349.51 552.47,-334.94 574.77,-323.79"/>
<polygon fill="black" stroke="black" points="576.11,-326.54 583.49,-318.93 572.98,-320.27 576.11,-326.54"/>
</g>
</g>
</svg>
