<?xml version="1.0" encoding="UTF-8" standalone="no"?>
<!DOCTYPE svg PUBLIC "-//W3C//DTD SVG 1.1//EN"
 "http://www.w3.org/Graphics/SVG/1.1/DTD/svg11.dtd">
<!-- Generated by graphviz version 8.0.4 (0)
 -->
<!-- Title: 1 Pages: 1 -->
<svg width="749pt" height="476pt"
 viewBox="0.00 0.00 748.94 476.00" xmlns="http://www.w3.org/2000/svg" xmlns:xlink="http://www.w3.org/1999/xlink">
<g id="graph0" class="graph" transform="scale(1 1) rotate(0) translate(4 472)">
<title>1</title>
<polygon fill="white" stroke="none" points="-4,4 -4,-472 744.94,-472 744.94,4 -4,4"/>
<!-- remain -->
<g id="node1" class="node">
<title>remain</title>
<ellipse fill="none" stroke="black" cx="328.47" cy="-90" rx="46.47" ry="18"/>
<text text-anchor="middle" x="328.47" y="-85.33" font-family="Times,serif" font-size="14.00">remain</text>
</g>
<!-- eternal life -->
<g id="node2" class="node">
<title>eternal life</title>
<ellipse fill="#ffffba" stroke="black" cx="136.47" cy="-18" rx="65.94" ry="18"/>
<text text-anchor="middle" x="136.47" y="-13.32" font-family="Times,serif" font-size="14.00">eternal life</text>
</g>
<!-- remain&#45;&gt;eternal life -->
<g id="edge1" class="edge">
<title>remain&#45;&gt;eternal life</title>
<path fill="none" stroke="black" d="M295.47,-76.97C265.15,-65.91 219.83,-49.39 185.32,-36.81"/>
<polygon fill="black" stroke="black" points="186.58,-33.18 175.99,-33.04 184.18,-39.76 186.58,-33.18"/>
</g>
<!-- one leg -->
<g id="node3" class="node">
<title>one leg</title>
<ellipse fill="none" stroke="black" cx="267.47" cy="-18" rx="47.53" ry="18"/>
<text text-anchor="middle" x="267.47" y="-13.32" font-family="Times,serif" font-size="14.00">one leg</text>
</g>
<!-- remain&#45;&gt;one leg -->
<g id="edge2" class="edge">
<title>remain&#45;&gt;one leg</title>
<path fill="none" stroke="black" d="M314.02,-72.41C306.5,-63.78 297.16,-53.06 288.82,-43.5"/>
<polygon fill="black" stroke="black" points="291.03,-41.71 281.83,-36.47 285.76,-46.31 291.03,-41.71"/>
</g>
<!-- one hand -->
<g id="node7" class="node">
<title>one hand</title>
<ellipse fill="none" stroke="black" cx="390.47" cy="-18" rx="57" ry="18"/>
<text text-anchor="middle" x="390.47" y="-13.32" font-family="Times,serif" font-size="14.00">one hand</text>
</g>
<!-- remain&#45;&gt;one hand -->
<g id="edge6" class="edge">
<title>remain&#45;&gt;one hand</title>
<path fill="none" stroke="black" d="M342.85,-72.76C350.49,-64.14 360.04,-53.36 368.57,-43.73"/>
<polygon fill="black" stroke="black" points="370.73,-46.44 374.74,-36.63 365.49,-41.8 370.73,-46.44"/>
</g>
<!-- one eye -->
<g id="node14" class="node">
<title>one eye</title>
<ellipse fill="none" stroke="black" cx="515.47" cy="-18" rx="49.63" ry="18"/>
<text text-anchor="middle" x="515.47" y="-13.32" font-family="Times,serif" font-size="14.00">one eye</text>
</g>
<!-- remain&#45;&gt;one eye -->
<g id="edge16" class="edge">
<title>remain&#45;&gt;one eye</title>
<path fill="none" stroke="black" d="M361.05,-76.81C391.68,-65.34 437.76,-48.09 471.61,-35.42"/>
<polygon fill="black" stroke="black" points="472.56,-38.43 480.7,-31.64 470.1,-31.87 472.56,-38.43"/>
</g>
<!-- heart -->
<g id="node4" class="node">
<title>heart</title>
<ellipse fill="#ffffba" stroke="black" cx="349.47" cy="-450" rx="38.06" ry="18"/>
<text text-anchor="middle" x="349.47" y="-445.32" font-family="Times,serif" font-size="14.00">heart</text>
</g>
<!-- left leg -->
<g id="node5" class="node">
<title>left leg</title>
<ellipse fill="none" stroke="black" cx="46.47" cy="-378" rx="46.47" ry="18"/>
<text text-anchor="middle" x="46.47" y="-373.32" font-family="Times,serif" font-size="14.00">left leg</text>
</g>
<!-- heart&#45;&gt;left leg -->
<g id="edge3" class="edge">
<title>heart&#45;&gt;left leg</title>
<path fill="none" stroke="black" d="M314.33,-442.52C266.06,-433.38 176.67,-415.61 101.47,-396 98.29,-395.17 95.01,-394.27 91.72,-393.34"/>
<polygon fill="black" stroke="black" points="92.83,-389.72 82.25,-390.26 90.86,-396.44 92.83,-389.72"/>
</g>
<!-- left hand -->
<g id="node8" class="node">
<title>left hand</title>
<ellipse fill="none" stroke="black" cx="166.47" cy="-378" rx="55.94" ry="18"/>
<text text-anchor="middle" x="166.47" y="-373.32" font-family="Times,serif" font-size="14.00">left hand</text>
</g>
<!-- heart&#45;&gt;left hand -->
<g id="edge7" class="edge">
<title>heart&#45;&gt;left hand</title>
<path fill="none" stroke="black" d="M320.48,-437.91C291.25,-426.73 245.72,-409.31 211.74,-396.32"/>
<polygon fill="black" stroke="black" points="213.19,-392.74 202.59,-392.43 210.68,-399.28 213.19,-392.74"/>
</g>
<!-- left eye -->
<g id="node9" class="node">
<title>left eye</title>
<ellipse fill="none" stroke="black" cx="289.47" cy="-378" rx="48.58" ry="18"/>
<text text-anchor="middle" x="289.47" y="-373.32" font-family="Times,serif" font-size="14.00">left eye</text>
</g>
<!-- heart&#45;&gt;left eye -->
<g id="edge9" class="edge">
<title>heart&#45;&gt;left eye</title>
<path fill="none" stroke="black" d="M335.56,-432.76C328.17,-424.14 318.93,-413.36 310.67,-403.73"/>
<polygon fill="black" stroke="black" points="312.9,-401.95 303.73,-396.63 307.58,-406.5 312.9,-401.95"/>
</g>
<!-- right leg -->
<g id="node10" class="node">
<title>right leg</title>
<ellipse fill="#ffffba" stroke="black" cx="410.47" cy="-378" rx="54.36" ry="18"/>
<text text-anchor="middle" x="410.47" y="-373.32" font-family="Times,serif" font-size="14.00">right leg</text>
</g>
<!-- heart&#45;&gt;right leg -->
<g id="edge11" class="edge">
<title>heart&#45;&gt;right leg</title>
<path fill="none" stroke="black" d="M363.31,-433.12C370.82,-424.51 380.26,-413.67 388.73,-403.96"/>
<polygon fill="black" stroke="black" points="391.9,-406.64 395.84,-396.8 386.63,-402.04 391.9,-406.64"/>
</g>
<!-- right hand -->
<g id="node15" class="node">
<title>right hand</title>
<ellipse fill="#ffffba" stroke="black" cx="546.47" cy="-378" rx="63.83" ry="18"/>
<text text-anchor="middle" x="546.47" y="-373.32" font-family="Times,serif" font-size="14.00">right hand</text>
</g>
<!-- heart&#45;&gt;right hand -->
<g id="edge17" class="edge">
<title>heart&#45;&gt;right hand</title>
<path fill="none" stroke="black" d="M379.39,-438.37C410.78,-427.22 460.61,-409.51 497.69,-396.33"/>
<polygon fill="black" stroke="black" points="498.53,-399.39 506.79,-392.75 496.19,-392.8 498.53,-399.39"/>
</g>
<!-- right eye -->
<g id="node16" class="node">
<title>right eye</title>
<ellipse fill="#ffffba" stroke="black" cx="684.47" cy="-378" rx="56.47" ry="18"/>
<text text-anchor="middle" x="684.47" y="-373.32" font-family="Times,serif" font-size="14.00">right eye</text>
</g>
<!-- heart&#45;&gt;right eye -->
<g id="edge19" class="edge">
<title>heart&#45;&gt;right eye</title>
<path fill="none" stroke="black" d="M384.57,-442.83C436.22,-433.58 535.65,-415.17 619.47,-396 623.58,-395.06 627.82,-394.05 632.07,-393"/>
<polygon fill="black" stroke="black" points="632.76,-396.19 641.61,-390.36 631.06,-389.4 632.76,-396.19"/>
</g>
<!-- does not tempt -->
<g id="node6" class="node">
<title>does not tempt</title>
<ellipse fill="none" stroke="black" cx="248.47" cy="-306" rx="86.98" ry="18"/>
<text text-anchor="middle" x="248.47" y="-301.32" font-family="Times,serif" font-size="14.00">does not tempt</text>
</g>
<!-- left leg&#45;&gt;does not tempt -->
<g id="edge4" class="edge">
<title>left leg&#45;&gt;does not tempt</title>
<path fill="none" stroke="black" d="M80.28,-365.28C111.6,-354.43 158.67,-338.12 195.07,-325.51"/>
<polygon fill="black" stroke="black" points="195.72,-328.64 204.03,-322.06 193.43,-322.02 195.72,-328.64"/>
</g>
<!-- does not tempt&#45;&gt;remain -->
<g id="edge5" class="edge">
<title>does not tempt&#45;&gt;remain</title>
<path fill="none" stroke="black" d="M254.88,-287.85C268.72,-250.83 301.49,-163.18 318.24,-118.39"/>
<polygon fill="black" stroke="black" points="321.81,-119.82 322.03,-109.23 315.25,-117.37 321.81,-119.82"/>
</g>
<!-- left hand&#45;&gt;does not tempt -->
<g id="edge8" class="edge">
<title>left hand&#45;&gt;does not tempt</title>
<path fill="none" stroke="black" d="M185.49,-360.76C195.92,-351.86 209.05,-340.65 220.62,-330.78"/>
<polygon fill="black" stroke="black" points="222.37,-333.03 227.7,-323.88 217.82,-327.71 222.37,-333.03"/>
</g>
<!-- left eye&#45;&gt;does not tempt -->
<g id="edge10" class="edge">
<title>left eye&#45;&gt;does not tempt</title>
<path fill="none" stroke="black" d="M279.55,-360.05C274.88,-352.09 269.21,-342.41 264,-333.51"/>
<polygon fill="black" stroke="black" points="266.67,-332.14 258.59,-325.28 260.63,-335.67 266.67,-332.14"/>
</g>
<!-- if tempts -->
<g id="node11" class="node">
<title>if tempts</title>
<ellipse fill="none" stroke="black" cx="450.47" cy="-306" rx="56.47" ry="18"/>
<text text-anchor="middle" x="450.47" y="-301.32" font-family="Times,serif" font-size="14.00">if tempts</text>
</g>
<!-- right leg&#45;&gt;if tempts -->
<g id="edge12" class="edge">
<title>right leg&#45;&gt;if tempts</title>
<path fill="none" stroke="black" d="M420.16,-360.05C424.77,-351.97 430.4,-342.12 435.55,-333.11"/>
<polygon fill="black" stroke="black" points="438.96,-335.21 440.88,-324.79 432.88,-331.73 438.96,-335.21"/>
</g>
<!-- pluck out -->
<g id="node12" class="node">
<title>pluck out</title>
<ellipse fill="none" stroke="black" cx="433.47" cy="-234" rx="57.52" ry="18"/>
<text text-anchor="middle" x="433.47" y="-229.32" font-family="Times,serif" font-size="14.00">pluck out</text>
</g>
<!-- if tempts&#45;&gt;pluck out -->
<g id="edge13" class="edge">
<title>if tempts&#45;&gt;pluck out</title>
<path fill="none" stroke="black" d="M446.27,-287.7C444.44,-280.15 442.24,-271.12 440.2,-262.68"/>
<polygon fill="black" stroke="black" points="443.39,-262 437.63,-253.1 436.59,-263.65 443.39,-262"/>
</g>
<!-- cast from you -->
<g id="node13" class="node">
<title>cast from you</title>
<ellipse fill="none" stroke="black" cx="416.47" cy="-162" rx="79.62" ry="18"/>
<text text-anchor="middle" x="416.47" y="-157.32" font-family="Times,serif" font-size="14.00">cast from you</text>
</g>
<!-- pluck out&#45;&gt;cast from you -->
<g id="edge14" class="edge">
<title>pluck out&#45;&gt;cast from you</title>
<path fill="none" stroke="black" d="M429.27,-215.7C427.44,-208.15 425.24,-199.12 423.2,-190.68"/>
<polygon fill="black" stroke="black" points="426.39,-190 420.63,-181.1 419.59,-191.65 426.39,-190"/>
</g>
<!-- cast from you&#45;&gt;remain -->
<g id="edge15" class="edge">
<title>cast from you&#45;&gt;remain</title>
<path fill="none" stroke="black" d="M395.62,-144.41C383.97,-135.15 369.3,-123.48 356.65,-113.41"/>
<polygon fill="black" stroke="black" points="359.28,-110.24 349.27,-106.75 354.92,-115.71 359.28,-110.24"/>
</g>
<!-- right hand&#45;&gt;if tempts -->
<g id="edge18" class="edge">
<title>right hand&#45;&gt;if tempts</title>
<path fill="none" stroke="black" d="M524.21,-360.76C511.39,-351.42 495.11,-339.55 481.1,-329.33"/>
<polygon fill="black" stroke="black" points="483.43,-325.97 473.29,-322.91 479.3,-331.63 483.43,-325.97"/>
</g>
<!-- right eye&#45;&gt;if tempts -->
<g id="edge20" class="edge">
<title>right eye&#45;&gt;if tempts</title>
<path fill="none" stroke="black" d="M644.25,-364.97C604.61,-353.11 543.94,-334.96 501.06,-322.13"/>
<polygon fill="black" stroke="black" points="502.15,-318.51 491.57,-318.99 500.14,-325.21 502.15,-318.51"/>
</g>
</g>
</svg>
