<?xml version="1.0" encoding="UTF-8" standalone="no"?>
<!DOCTYPE svg PUBLIC "-//W3C//DTD SVG 1.1//EN"
 "http://www.w3.org/Graphics/SVG/1.1/DTD/svg11.dtd">
<!-- Generated by graphviz version 8.0.4 (0)
 -->
<!-- Title: 1 Pages: 1 -->
<svg width="166pt" height="187pt"
 viewBox="0.00 0.00 165.98 186.68" xmlns="http://www.w3.org/2000/svg" xmlns:xlink="http://www.w3.org/1999/xlink">
<g id="graph0" class="graph" transform="scale(1 1) rotate(0) translate(4 182.68)">
<title>1</title>
<polygon fill="white" stroke="none" points="-4,4 -4,-182.68 161.98,-182.68 161.98,4 -4,4"/>
<!-- heart -->
<g id="node1" class="node">
<title>heart</title>
<ellipse fill="#ffffba" stroke="black" cx="73.4" cy="-111.74" rx="38.06" ry="18"/>
<text text-anchor="middle" x="73.4" y="-107.06" font-family="Times,serif" font-size="14.00">heart</text>
</g>
<!-- look -->
<g id="node2" class="node">
<title>look</title>
<ellipse fill="none" stroke="black" cx="106.95" cy="-67.73" rx="31.74" ry="18"/>
<text text-anchor="middle" x="106.95" y="-63.06" font-family="Times,serif" font-size="14.00">look</text>
</g>
<!-- heart&#45;&gt;look -->
<g id="edge1" class="edge">
<title>heart&#45;&gt;look</title>
<path fill="none" stroke="black" d="M86.47,-94.6C86.86,-94.08 87.25,-93.57 87.65,-93.05"/>
<polygon fill="black" stroke="black" points="90.8,-95.68 94.08,-85.61 85.24,-91.44 90.8,-95.68"/>
</g>
<!-- adultery -->
<g id="node4" class="node">
<title>adultery</title>
<ellipse fill="none" stroke="black" cx="53.31" cy="-160.68" rx="53.31" ry="18"/>
<text text-anchor="middle" x="53.31" y="-156.01" font-family="Times,serif" font-size="14.00">adultery</text>
</g>
<!-- heart&#45;&gt;adultery -->
<g id="edge3" class="edge">
<title>heart&#45;&gt;adultery</title>
<path fill="none" stroke="black" d="M66.04,-129.68C65.66,-130.59 65.29,-131.51 64.91,-132.44"/>
<polygon fill="black" stroke="black" points="61.37,-130.83 60.81,-141.41 67.85,-133.49 61.37,-130.83"/>
</g>
<!-- eyes -->
<g id="node3" class="node">
<title>eyes</title>
<ellipse fill="none" stroke="black" cx="124.13" cy="-18" rx="33.85" ry="18"/>
<text text-anchor="middle" x="124.13" y="-13.32" font-family="Times,serif" font-size="14.00">eyes</text>
</g>
<!-- look&#45;&gt;eyes -->
<g id="edge2" class="edge">
<title>look&#45;&gt;eyes</title>
<path fill="none" stroke="black" d="M113.15,-49.78C113.54,-48.66 113.93,-47.53 114.32,-46.39"/>
<polygon fill="black" stroke="black" points="117.92,-47.69 117.88,-37.09 111.31,-45.4 117.92,-47.69"/>
</g>
</g>
</svg>
