<?xml version="1.0" encoding="UTF-8" standalone="no"?>
<!DOCTYPE svg PUBLIC "-//W3C//DTD SVG 1.1//EN"
 "http://www.w3.org/Graphics/SVG/1.1/DTD/svg11.dtd">
<!-- Generated by graphviz version 8.0.4 (0)
 -->
<!-- Title: 1 Pages: 1 -->
<svg width="557pt" height="548pt"
 viewBox="0.00 0.00 557.08 548.00" xmlns="http://www.w3.org/2000/svg" xmlns:xlink="http://www.w3.org/1999/xlink">
<g id="graph0" class="graph" transform="scale(1 1) rotate(0) translate(4 544)">
<title>1</title>
<polygon fill="white" stroke="none" points="-4,4 -4,-544 553.08,-544 553.08,4 -4,4"/>
<!-- temtpation -->
<g id="node1" class="node">
<title>temtpation</title>
<ellipse fill="none" stroke="black" cx="103.2" cy="-522" rx="66.47" ry="18"/>
<text text-anchor="middle" x="103.2" y="-517.33" font-family="Times,serif" font-size="14.00">temtpation</text>
</g>
<!-- not filled  -->
<g id="node2" class="node">
<title>not filled </title>
<ellipse fill="none" stroke="black" cx="103.2" cy="-450" rx="58.57" ry="18"/>
<text text-anchor="middle" x="103.2" y="-445.32" font-family="Times,serif" font-size="14.00">not filled </text>
</g>
<!-- temtpation&#45;&gt;not filled  -->
<g id="edge1" class="edge">
<title>temtpation&#45;&gt;not filled </title>
<path fill="none" stroke="black" d="M103.2,-503.7C103.2,-496.24 103.2,-487.32 103.2,-478.97"/>
<polygon fill="black" stroke="black" points="106.7,-479.1 103.2,-469.1 99.7,-479.1 106.7,-479.1"/>
</g>
<!-- temptation -->
<g id="node3" class="node">
<title>temptation</title>
<ellipse fill="none" stroke="black" cx="174.2" cy="-306" rx="66.47" ry="18"/>
<text text-anchor="middle" x="174.2" y="-301.32" font-family="Times,serif" font-size="14.00">temptation</text>
</g>
<!-- partially filled -->
<g id="node4" class="node">
<title>partially filled</title>
<ellipse fill="none" stroke="black" cx="81.2" cy="-234" rx="81.2" ry="18"/>
<text text-anchor="middle" x="81.2" y="-229.32" font-family="Times,serif" font-size="14.00">partially filled</text>
</g>
<!-- temptation&#45;&gt;partially filled -->
<g id="edge2" class="edge">
<title>temptation&#45;&gt;partially filled</title>
<path fill="none" stroke="black" d="M152.63,-288.76C140.48,-279.62 125.11,-268.05 111.74,-257.99"/>
<polygon fill="black" stroke="black" points="114.39,-254.85 104.29,-251.63 110.18,-260.44 114.39,-254.85"/>
</g>
<!-- there are parts -->
<g id="node9" class="node">
<title>there are parts</title>
<ellipse fill="#ffffba" stroke="black" cx="267.2" cy="-234" rx="86.98" ry="18"/>
<text text-anchor="middle" x="267.2" y="-229.32" font-family="Times,serif" font-size="14.00">there are parts</text>
</g>
<!-- temptation&#45;&gt;there are parts -->
<g id="edge11" class="edge">
<title>temptation&#45;&gt;there are parts</title>
<path fill="none" stroke="black" d="M195.77,-288.76C207.71,-279.77 222.77,-268.44 235.98,-258.49"/>
<polygon fill="black" stroke="black" points="237.89,-260.69 243.77,-251.88 233.68,-255.1 237.89,-260.69"/>
</g>
<!-- lead to purity -->
<g id="node5" class="node">
<title>lead to purity</title>
<ellipse fill="none" stroke="black" cx="181.2" cy="-90" rx="79.09" ry="18"/>
<text text-anchor="middle" x="181.2" y="-85.33" font-family="Times,serif" font-size="14.00">lead to purity</text>
</g>
<!-- life -->
<g id="node6" class="node">
<title>life</title>
<ellipse fill="none" stroke="black" cx="59.2" cy="-18" rx="27.01" ry="18"/>
<text text-anchor="middle" x="59.2" y="-13.32" font-family="Times,serif" font-size="14.00">life</text>
</g>
<!-- lead to purity&#45;&gt;life -->
<g id="edge3" class="edge">
<title>lead to purity&#45;&gt;life</title>
<path fill="none" stroke="black" d="M152.9,-72.76C133.63,-61.71 108.18,-47.11 88.67,-35.91"/>
<polygon fill="black" stroke="black" points="90.76,-32.5 80.34,-30.56 87.27,-38.57 90.76,-32.5"/>
</g>
<!-- body -->
<g id="node7" class="node">
<title>body</title>
<ellipse fill="none" stroke="black" cx="139.2" cy="-18" rx="35.42" ry="18"/>
<text text-anchor="middle" x="139.2" y="-13.32" font-family="Times,serif" font-size="14.00">body</text>
</g>
<!-- lead to purity&#45;&gt;body -->
<g id="edge4" class="edge">
<title>lead to purity&#45;&gt;body</title>
<path fill="none" stroke="black" d="M170.81,-71.7C165.96,-63.61 160.08,-53.81 154.72,-44.87"/>
<polygon fill="black" stroke="black" points="157.32,-43.4 149.17,-36.62 151.31,-47 157.32,-43.4"/>
</g>
<!-- soul -->
<g id="node8" class="node">
<title>soul</title>
<ellipse fill="none" stroke="black" cx="224.2" cy="-18" rx="31.74" ry="18"/>
<text text-anchor="middle" x="224.2" y="-13.32" font-family="Times,serif" font-size="14.00">soul</text>
</g>
<!-- lead to purity&#45;&gt;soul -->
<g id="edge5" class="edge">
<title>lead to purity&#45;&gt;soul</title>
<path fill="none" stroke="black" d="M191.83,-71.7C196.87,-63.49 202.99,-53.52 208.55,-44.48"/>
<polygon fill="black" stroke="black" points="212.03,-46.5 214.28,-36.14 206.06,-42.83 212.03,-46.5"/>
</g>
<!-- heart  -->
<g id="node11" class="node">
<title>heart </title>
<ellipse fill="none" stroke="black" cx="315.2" cy="-18" rx="41.21" ry="18"/>
<text text-anchor="middle" x="315.2" y="-13.32" font-family="Times,serif" font-size="14.00">heart </text>
</g>
<!-- lead to purity&#45;&gt;heart  -->
<g id="edge8" class="edge">
<title>lead to purity&#45;&gt;heart </title>
<path fill="none" stroke="black" d="M211.94,-72.94C232.22,-62.35 258.84,-48.44 279.97,-37.4"/>
<polygon fill="black" stroke="black" points="281.31,-40.13 288.55,-32.4 278.06,-33.93 281.31,-40.13"/>
</g>
<!-- not filled -->
<g id="node10" class="node">
<title>not filled</title>
<ellipse fill="none" stroke="black" cx="204.2" cy="-162" rx="55.42" ry="18"/>
<text text-anchor="middle" x="204.2" y="-157.32" font-family="Times,serif" font-size="14.00">not filled</text>
</g>
<!-- there are parts&#45;&gt;not filled -->
<g id="edge6" class="edge">
<title>there are parts&#45;&gt;not filled</title>
<path fill="none" stroke="black" d="M251.95,-216.05C244.28,-207.54 234.86,-197.07 226.41,-187.68"/>
<polygon fill="black" stroke="black" points="229.6,-185.88 220.31,-180.79 224.39,-190.56 229.6,-185.88"/>
</g>
<!-- filled  -->
<g id="node14" class="node">
<title>filled </title>
<ellipse fill="none" stroke="black" cx="329.2" cy="-162" rx="39.11" ry="18"/>
<text text-anchor="middle" x="329.2" y="-157.32" font-family="Times,serif" font-size="14.00">filled </text>
</g>
<!-- there are parts&#45;&gt;filled  -->
<g id="edge12" class="edge">
<title>there are parts&#45;&gt;filled </title>
<path fill="none" stroke="black" d="M282.2,-216.05C289.97,-207.29 299.57,-196.45 308.07,-186.86"/>
<polygon fill="black" stroke="black" points="310.17,-189.64 314.18,-179.83 304.93,-184.99 310.17,-189.64"/>
</g>
<!-- not filled&#45;&gt;lead to purity -->
<g id="edge7" class="edge">
<title>not filled&#45;&gt;lead to purity</title>
<path fill="none" stroke="black" d="M198.51,-143.7C196,-136.07 193,-126.92 190.2,-118.4"/>
<polygon fill="black" stroke="black" points="193.26,-117.51 186.82,-109.1 186.61,-119.7 193.26,-117.51"/>
</g>
<!-- what is filled with -->
<g id="node12" class="node">
<title>what is filled with</title>
<ellipse fill="none" stroke="black" cx="280.2" cy="-450" rx="100.66" ry="18"/>
<text text-anchor="middle" x="280.2" y="-445.32" font-family="Times,serif" font-size="14.00">what is filled with</text>
</g>
<!-- filled -->
<g id="node13" class="node">
<title>filled</title>
<ellipse fill="#ffffba" stroke="black" cx="174.2" cy="-378" rx="35.95" ry="18"/>
<text text-anchor="middle" x="174.2" y="-373.32" font-family="Times,serif" font-size="14.00">filled</text>
</g>
<!-- what is filled with&#45;&gt;filled -->
<g id="edge9" class="edge">
<title>what is filled with&#45;&gt;filled</title>
<path fill="none" stroke="black" d="M254.81,-432.23C239.55,-422.16 220.06,-409.28 204.06,-398.72"/>
<polygon fill="black" stroke="black" points="206.38,-395.4 196.11,-392.81 202.52,-401.24 206.38,-395.4"/>
</g>
<!-- the mouth say -->
<g id="node17" class="node">
<title>the mouth say</title>
<ellipse fill="none" stroke="black" cx="311.2" cy="-378" rx="82.77" ry="18"/>
<text text-anchor="middle" x="311.2" y="-373.32" font-family="Times,serif" font-size="14.00">the mouth say</text>
</g>
<!-- what is filled with&#45;&gt;the mouth say -->
<g id="edge15" class="edge">
<title>what is filled with&#45;&gt;the mouth say</title>
<path fill="none" stroke="black" d="M287.86,-431.7C291.28,-423.98 295.38,-414.71 299.19,-406.11"/>
<polygon fill="black" stroke="black" points="302.77,-407.67 303.62,-397.1 296.37,-404.83 302.77,-407.67"/>
</g>
<!-- filled&#45;&gt;temptation -->
<g id="edge10" class="edge">
<title>filled&#45;&gt;temptation</title>
<path fill="none" stroke="black" d="M174.2,-359.7C174.2,-352.24 174.2,-343.32 174.2,-334.97"/>
<polygon fill="black" stroke="black" points="177.7,-335.1 174.2,-325.1 170.7,-335.1 177.7,-335.1"/>
</g>
<!-- lead to sin -->
<g id="node15" class="node">
<title>lead to sin</title>
<ellipse fill="none" stroke="black" cx="341.2" cy="-90" rx="63.31" ry="18"/>
<text text-anchor="middle" x="341.2" y="-85.33" font-family="Times,serif" font-size="14.00">lead to sin</text>
</g>
<!-- filled &#45;&gt;lead to sin -->
<g id="edge13" class="edge">
<title>filled &#45;&gt;lead to sin</title>
<path fill="none" stroke="black" d="M332.16,-143.7C333.46,-136.15 335,-127.12 336.45,-118.68"/>
<polygon fill="black" stroke="black" points="340.02,-119.55 338.26,-109.1 333.12,-118.37 340.02,-119.55"/>
</g>
<!-- heart -->
<g id="node16" class="node">
<title>heart</title>
<ellipse fill="#ffffba" stroke="black" cx="377.2" cy="-522" rx="38.06" ry="18"/>
<text text-anchor="middle" x="377.2" y="-517.33" font-family="Times,serif" font-size="14.00">heart</text>
</g>
<!-- heart&#45;&gt;what is filled with -->
<g id="edge14" class="edge">
<title>heart&#45;&gt;what is filled with</title>
<path fill="none" stroke="black" d="M357.1,-506.5C344.23,-497.21 327.25,-484.95 312.51,-474.32"/>
<polygon fill="black" stroke="black" points="314.84,-470.96 304.69,-467.95 310.75,-476.64 314.84,-470.96"/>
</g>
<!-- from it come -->
<g id="node18" class="node">
<title>from it come</title>
<ellipse fill="none" stroke="black" cx="474.2" cy="-450" rx="74.88" ry="18"/>
<text text-anchor="middle" x="474.2" y="-445.32" font-family="Times,serif" font-size="14.00">from it come</text>
</g>
<!-- heart&#45;&gt;from it come -->
<g id="edge16" class="edge">
<title>heart&#45;&gt;from it come</title>
<path fill="none" stroke="black" d="M397.29,-506.5C410.35,-497.08 427.63,-484.6 442.51,-473.87"/>
<polygon fill="black" stroke="black" points="444.34,-476.14 450.4,-467.45 440.25,-470.46 444.34,-476.14"/>
</g>
<!-- sins -->
<g id="node19" class="node">
<title>sins</title>
<ellipse fill="none" stroke="black" cx="474.2" cy="-378" rx="31.22" ry="18"/>
<text text-anchor="middle" x="474.2" y="-373.32" font-family="Times,serif" font-size="14.00">sins</text>
</g>
<!-- from it come&#45;&gt;sins -->
<g id="edge17" class="edge">
<title>from it come&#45;&gt;sins</title>
<path fill="none" stroke="black" d="M474.2,-431.7C474.2,-424.24 474.2,-415.32 474.2,-406.97"/>
<polygon fill="black" stroke="black" points="477.7,-407.1 474.2,-397.1 470.7,-407.1 477.7,-407.1"/>
</g>
</g>
</svg>
