<?xml version="1.0" encoding="UTF-8" standalone="no"?>
<!DOCTYPE svg PUBLIC "-//W3C//DTD SVG 1.1//EN"
 "http://www.w3.org/Graphics/SVG/1.1/DTD/svg11.dtd">
<!-- Generated by graphviz version 8.0.4 (0)
 -->
<!-- Title: 1 Pages: 1 -->
<svg width="599pt" height="548pt"
 viewBox="0.00 0.00 599.46 548.00" xmlns="http://www.w3.org/2000/svg" xmlns:xlink="http://www.w3.org/1999/xlink">
<g id="graph0" class="graph" transform="scale(1 1) rotate(0) translate(4 544)">
<title>1</title>
<polygon fill="white" stroke="none" points="-4,4 -4,-544 595.46,-544 595.46,4 -4,4"/>
<!-- temptation -->
<g id="node1" class="node">
<title>temptation</title>
<ellipse fill="none" stroke="black" cx="216.57" cy="-306" rx="66.47" ry="18"/>
<text text-anchor="middle" x="216.57" y="-301.32" font-family="Times,serif" font-size="14.00">temptation</text>
</g>
<!-- not filled  -->
<g id="node2" class="node">
<title>not filled </title>
<ellipse fill="none" stroke="black" cx="58.57" cy="-234" rx="58.57" ry="18"/>
<text text-anchor="middle" x="58.57" y="-229.32" font-family="Times,serif" font-size="14.00">not filled </text>
</g>
<!-- temptation&#45;&gt;not filled  -->
<g id="edge1" class="edge">
<title>temptation&#45;&gt;not filled </title>
<path fill="none" stroke="black" d="M183.07,-290.15C159.07,-279.53 126.59,-265.14 100.82,-253.72"/>
<polygon fill="black" stroke="black" points="102.51,-250.2 91.95,-249.35 99.68,-256.6 102.51,-250.2"/>
</g>
<!-- partially filled -->
<g id="node3" class="node">
<title>partially filled</title>
<ellipse fill="none" stroke="black" cx="216.57" cy="-234" rx="81.2" ry="18"/>
<text text-anchor="middle" x="216.57" y="-229.32" font-family="Times,serif" font-size="14.00">partially filled</text>
</g>
<!-- temptation&#45;&gt;partially filled -->
<g id="edge2" class="edge">
<title>temptation&#45;&gt;partially filled</title>
<path fill="none" stroke="black" d="M216.57,-287.7C216.57,-280.24 216.57,-271.32 216.57,-262.97"/>
<polygon fill="black" stroke="black" points="220.07,-263.1 216.57,-253.1 213.07,-263.1 220.07,-263.1"/>
</g>
<!-- there are parts -->
<g id="node8" class="node">
<title>there are parts</title>
<ellipse fill="#ffffba" stroke="black" cx="402.57" cy="-234" rx="86.98" ry="18"/>
<text text-anchor="middle" x="402.57" y="-229.32" font-family="Times,serif" font-size="14.00">there are parts</text>
</g>
<!-- temptation&#45;&gt;there are parts -->
<g id="edge11" class="edge">
<title>temptation&#45;&gt;there are parts</title>
<path fill="none" stroke="black" d="M254.21,-290.83C282.25,-280.28 320.85,-265.76 351.64,-254.17"/>
<polygon fill="black" stroke="black" points="352.64,-257.16 360.76,-250.36 350.17,-250.61 352.64,-257.16"/>
</g>
<!-- lead to purity -->
<g id="node4" class="node">
<title>lead to purity</title>
<ellipse fill="none" stroke="black" cx="317.57" cy="-90" rx="79.09" ry="18"/>
<text text-anchor="middle" x="317.57" y="-85.33" font-family="Times,serif" font-size="14.00">lead to purity</text>
</g>
<!-- life -->
<g id="node5" class="node">
<title>life</title>
<ellipse fill="none" stroke="black" cx="195.57" cy="-18" rx="27.01" ry="18"/>
<text text-anchor="middle" x="195.57" y="-13.32" font-family="Times,serif" font-size="14.00">life</text>
</g>
<!-- lead to purity&#45;&gt;life -->
<g id="edge3" class="edge">
<title>lead to purity&#45;&gt;life</title>
<path fill="none" stroke="black" d="M289.28,-72.76C270.01,-61.71 244.56,-47.11 225.04,-35.91"/>
<polygon fill="black" stroke="black" points="227.13,-32.5 216.72,-30.56 223.65,-38.57 227.13,-32.5"/>
</g>
<!-- body -->
<g id="node6" class="node">
<title>body</title>
<ellipse fill="none" stroke="black" cx="275.57" cy="-18" rx="35.42" ry="18"/>
<text text-anchor="middle" x="275.57" y="-13.32" font-family="Times,serif" font-size="14.00">body</text>
</g>
<!-- lead to purity&#45;&gt;body -->
<g id="edge4" class="edge">
<title>lead to purity&#45;&gt;body</title>
<path fill="none" stroke="black" d="M307.19,-71.7C302.34,-63.61 296.46,-53.81 291.1,-44.87"/>
<polygon fill="black" stroke="black" points="293.69,-43.4 285.55,-36.62 287.69,-47 293.69,-43.4"/>
</g>
<!-- soul -->
<g id="node7" class="node">
<title>soul</title>
<ellipse fill="none" stroke="black" cx="360.57" cy="-18" rx="31.74" ry="18"/>
<text text-anchor="middle" x="360.57" y="-13.32" font-family="Times,serif" font-size="14.00">soul</text>
</g>
<!-- lead to purity&#45;&gt;soul -->
<g id="edge5" class="edge">
<title>lead to purity&#45;&gt;soul</title>
<path fill="none" stroke="black" d="M328.2,-71.7C333.24,-63.49 339.37,-53.52 344.92,-44.48"/>
<polygon fill="black" stroke="black" points="348.4,-46.5 350.66,-36.14 342.44,-42.83 348.4,-46.5"/>
</g>
<!-- heart  -->
<g id="node10" class="node">
<title>heart </title>
<ellipse fill="none" stroke="black" cx="451.57" cy="-18" rx="41.21" ry="18"/>
<text text-anchor="middle" x="451.57" y="-13.32" font-family="Times,serif" font-size="14.00">heart </text>
</g>
<!-- lead to purity&#45;&gt;heart  -->
<g id="edge8" class="edge">
<title>lead to purity&#45;&gt;heart </title>
<path fill="none" stroke="black" d="M348.32,-72.94C368.59,-62.35 395.21,-48.44 416.35,-37.4"/>
<polygon fill="black" stroke="black" points="417.68,-40.13 424.93,-32.4 414.44,-33.93 417.68,-40.13"/>
</g>
<!-- not filled -->
<g id="node9" class="node">
<title>not filled</title>
<ellipse fill="none" stroke="black" cx="340.57" cy="-162" rx="55.42" ry="18"/>
<text text-anchor="middle" x="340.57" y="-157.32" font-family="Times,serif" font-size="14.00">not filled</text>
</g>
<!-- there are parts&#45;&gt;not filled -->
<g id="edge6" class="edge">
<title>there are parts&#45;&gt;not filled</title>
<path fill="none" stroke="black" d="M387.57,-216.05C380.1,-207.63 370.94,-197.28 362.69,-187.97"/>
<polygon fill="black" stroke="black" points="365.69,-185.95 356.44,-180.79 360.45,-190.6 365.69,-185.95"/>
</g>
<!-- filled  -->
<g id="node13" class="node">
<title>filled </title>
<ellipse fill="none" stroke="black" cx="465.57" cy="-162" rx="39.11" ry="18"/>
<text text-anchor="middle" x="465.57" y="-157.32" font-family="Times,serif" font-size="14.00">filled </text>
</g>
<!-- there are parts&#45;&gt;filled  -->
<g id="edge12" class="edge">
<title>there are parts&#45;&gt;filled </title>
<path fill="none" stroke="black" d="M417.82,-216.05C425.71,-207.29 435.47,-196.45 444.1,-186.86"/>
<polygon fill="black" stroke="black" points="446.24,-189.6 450.33,-179.83 441.04,-184.92 446.24,-189.6"/>
</g>
<!-- not filled&#45;&gt;lead to purity -->
<g id="edge7" class="edge">
<title>not filled&#45;&gt;lead to purity</title>
<path fill="none" stroke="black" d="M334.89,-143.7C332.38,-136.07 329.37,-126.92 326.58,-118.4"/>
<polygon fill="black" stroke="black" points="329.64,-117.51 323.19,-109.1 322.99,-119.7 329.64,-117.51"/>
</g>
<!-- what is filled with -->
<g id="node11" class="node">
<title>what is filled with</title>
<ellipse fill="none" stroke="black" cx="322.57" cy="-450" rx="100.66" ry="18"/>
<text text-anchor="middle" x="322.57" y="-445.32" font-family="Times,serif" font-size="14.00">what is filled with</text>
</g>
<!-- filled -->
<g id="node12" class="node">
<title>filled</title>
<ellipse fill="#ffffba" stroke="black" cx="216.57" cy="-378" rx="35.95" ry="18"/>
<text text-anchor="middle" x="216.57" y="-373.32" font-family="Times,serif" font-size="14.00">filled</text>
</g>
<!-- what is filled with&#45;&gt;filled -->
<g id="edge9" class="edge">
<title>what is filled with&#45;&gt;filled</title>
<path fill="none" stroke="black" d="M297.18,-432.23C281.93,-422.16 262.43,-409.28 246.44,-398.72"/>
<polygon fill="black" stroke="black" points="248.76,-395.4 238.48,-392.81 244.9,-401.24 248.76,-395.4"/>
</g>
<!-- the mouth say -->
<g id="node16" class="node">
<title>the mouth say</title>
<ellipse fill="none" stroke="black" cx="353.57" cy="-378" rx="82.77" ry="18"/>
<text text-anchor="middle" x="353.57" y="-373.32" font-family="Times,serif" font-size="14.00">the mouth say</text>
</g>
<!-- what is filled with&#45;&gt;the mouth say -->
<g id="edge15" class="edge">
<title>what is filled with&#45;&gt;the mouth say</title>
<path fill="none" stroke="black" d="M330.24,-431.7C333.65,-423.98 337.76,-414.71 341.57,-406.11"/>
<polygon fill="black" stroke="black" points="345.15,-407.67 346,-397.1 338.75,-404.83 345.15,-407.67"/>
</g>
<!-- filled&#45;&gt;temptation -->
<g id="edge10" class="edge">
<title>filled&#45;&gt;temptation</title>
<path fill="none" stroke="black" d="M216.57,-359.7C216.57,-352.24 216.57,-343.32 216.57,-334.97"/>
<polygon fill="black" stroke="black" points="220.07,-335.1 216.57,-325.1 213.07,-335.1 220.07,-335.1"/>
</g>
<!-- lead to sin -->
<g id="node14" class="node">
<title>lead to sin</title>
<ellipse fill="none" stroke="black" cx="477.57" cy="-90" rx="63.31" ry="18"/>
<text text-anchor="middle" x="477.57" y="-85.33" font-family="Times,serif" font-size="14.00">lead to sin</text>
</g>
<!-- filled &#45;&gt;lead to sin -->
<g id="edge13" class="edge">
<title>filled &#45;&gt;lead to sin</title>
<path fill="none" stroke="black" d="M468.54,-143.7C469.83,-136.15 471.38,-127.12 472.83,-118.68"/>
<polygon fill="black" stroke="black" points="476.4,-119.55 474.64,-109.1 469.5,-118.37 476.4,-119.55"/>
</g>
<!-- heart -->
<g id="node15" class="node">
<title>heart</title>
<ellipse fill="#ffffba" stroke="black" cx="419.57" cy="-522" rx="38.06" ry="18"/>
<text text-anchor="middle" x="419.57" y="-517.33" font-family="Times,serif" font-size="14.00">heart</text>
</g>
<!-- heart&#45;&gt;what is filled with -->
<g id="edge14" class="edge">
<title>heart&#45;&gt;what is filled with</title>
<path fill="none" stroke="black" d="M399.48,-506.5C386.61,-497.21 369.62,-484.95 354.89,-474.32"/>
<polygon fill="black" stroke="black" points="357.22,-470.96 347.06,-467.95 353.12,-476.64 357.22,-470.96"/>
</g>
<!-- from it come -->
<g id="node17" class="node">
<title>from it come</title>
<ellipse fill="none" stroke="black" cx="516.57" cy="-450" rx="74.88" ry="18"/>
<text text-anchor="middle" x="516.57" y="-445.32" font-family="Times,serif" font-size="14.00">from it come</text>
</g>
<!-- heart&#45;&gt;from it come -->
<g id="edge16" class="edge">
<title>heart&#45;&gt;from it come</title>
<path fill="none" stroke="black" d="M439.67,-506.5C452.72,-497.08 470.01,-484.6 484.89,-473.87"/>
<polygon fill="black" stroke="black" points="486.72,-476.14 492.78,-467.45 482.62,-470.46 486.72,-476.14"/>
</g>
<!-- sins -->
<g id="node18" class="node">
<title>sins</title>
<ellipse fill="none" stroke="black" cx="516.57" cy="-378" rx="31.22" ry="18"/>
<text text-anchor="middle" x="516.57" y="-373.32" font-family="Times,serif" font-size="14.00">sins</text>
</g>
<!-- from it come&#45;&gt;sins -->
<g id="edge17" class="edge">
<title>from it come&#45;&gt;sins</title>
<path fill="none" stroke="black" d="M516.57,-431.7C516.57,-424.24 516.57,-415.32 516.57,-406.97"/>
<polygon fill="black" stroke="black" points="520.07,-407.1 516.57,-397.1 513.07,-407.1 520.07,-407.1"/>
</g>
</g>
</svg>
