<?xml version="1.0" encoding="UTF-8" standalone="no"?>
<!DOCTYPE svg PUBLIC "-//W3C//DTD SVG 1.1//EN"
 "http://www.w3.org/Graphics/SVG/1.1/DTD/svg11.dtd">
<!-- Generated by graphviz version 8.0.4 (0)
 -->
<!-- Title: 1 Pages: 1 -->
<svg width="972pt" height="744pt"
 viewBox="0.00 0.00 972.17 744.35" xmlns="http://www.w3.org/2000/svg" xmlns:xlink="http://www.w3.org/1999/xlink">
<g id="graph0" class="graph" transform="scale(1 1) rotate(0) translate(4 740.35)">
<title>1</title>
<polygon fill="white" stroke="none" points="-4,4 -4,-740.35 968.17,-740.35 968.17,4 -4,4"/>
<!-- temtpation -->
<g id="node1" class="node">
<title>temtpation</title>
<ellipse fill="none" stroke="black" cx="736.47" cy="-640.88" rx="66.47" ry="18"/>
<text text-anchor="middle" x="736.47" y="-636.2" font-family="Times,serif" font-size="14.00">temtpation</text>
</g>
<!-- not filled  -->
<g id="node2" class="node">
<title>not filled </title>
<ellipse fill="none" stroke="black" cx="869.52" cy="-621" rx="58.57" ry="18"/>
<text text-anchor="middle" x="869.52" y="-616.33" font-family="Times,serif" font-size="14.00">not filled </text>
</g>
<!-- temtpation&#45;&gt;not filled  -->
<g id="edge1" class="edge">
<title>temtpation&#45;&gt;not filled </title>
<path fill="none" stroke="black" d="M795.21,-632.1C798.76,-631.57 802.34,-631.04 805.91,-630.5"/>
<polygon fill="black" stroke="black" points="806.17,-633.85 815.54,-628.91 805.14,-626.93 806.17,-633.85"/>
</g>
<!-- temptation -->
<g id="node3" class="node">
<title>temptation</title>
<ellipse fill="none" stroke="black" cx="521.17" cy="-422" rx="66.47" ry="18"/>
<text text-anchor="middle" x="521.17" y="-417.32" font-family="Times,serif" font-size="14.00">temptation</text>
</g>
<!-- partially filled -->
<g id="node4" class="node">
<title>partially filled</title>
<ellipse fill="none" stroke="black" cx="585.66" cy="-528.92" rx="81.2" ry="18"/>
<text text-anchor="middle" x="585.66" y="-524.24" font-family="Times,serif" font-size="14.00">partially filled</text>
</g>
<!-- temptation&#45;&gt;partially filled -->
<g id="edge2" class="edge">
<title>temptation&#45;&gt;partially filled</title>
<path fill="none" stroke="black" d="M532.11,-440.14C542.26,-456.96 557.49,-482.22 569.12,-501.5"/>
<polygon fill="black" stroke="black" points="566.51,-502.93 574.67,-509.69 572.5,-499.32 566.51,-502.93"/>
</g>
<!-- there are parts -->
<g id="node9" class="node">
<title>there are parts</title>
<ellipse fill="#ffffba" stroke="black" cx="384.25" cy="-466.04" rx="86.98" ry="18"/>
<text text-anchor="middle" x="384.25" y="-461.37" font-family="Times,serif" font-size="14.00">there are parts</text>
</g>
<!-- temptation&#45;&gt;there are parts -->
<g id="edge11" class="edge">
<title>temptation&#45;&gt;there are parts</title>
<path fill="none" stroke="black" d="M477.85,-435.93C466.58,-439.56 454.25,-443.52 442.35,-447.35"/>
<polygon fill="black" stroke="black" points="441.49,-444.27 433.04,-450.67 443.63,-450.94 441.49,-444.27"/>
</g>
<!-- lead to purity -->
<g id="node5" class="node">
<title>lead to purity</title>
<ellipse fill="none" stroke="black" cx="141.2" cy="-369.13" rx="79.09" ry="18"/>
<text text-anchor="middle" x="141.2" y="-364.46" font-family="Times,serif" font-size="14.00">lead to purity</text>
</g>
<!-- life -->
<g id="node6" class="node">
<title>life</title>
<ellipse fill="none" stroke="black" cx="27.01" cy="-399.96" rx="27.01" ry="18"/>
<text text-anchor="middle" x="27.01" y="-395.28" font-family="Times,serif" font-size="14.00">life</text>
</g>
<!-- lead to purity&#45;&gt;life -->
<g id="edge3" class="edge">
<title>lead to purity&#45;&gt;life</title>
<path fill="none" stroke="black" d="M89.45,-383.1C80.51,-385.51 71.38,-387.98 62.97,-390.25"/>
<polygon fill="black" stroke="black" points="62.15,-387.11 53.4,-393.1 63.97,-393.87 62.15,-387.11"/>
</g>
<!-- body -->
<g id="node7" class="node">
<title>body</title>
<ellipse fill="none" stroke="black" cx="91.82" cy="-486.12" rx="35.42" ry="18"/>
<text text-anchor="middle" x="91.82" y="-481.44" font-family="Times,serif" font-size="14.00">body</text>
</g>
<!-- lead to purity&#45;&gt;body -->
<g id="edge4" class="edge">
<title>lead to purity&#45;&gt;body</title>
<path fill="none" stroke="black" d="M133.49,-387.41C125.47,-406.41 112.82,-436.37 103.56,-458.31"/>
<polygon fill="black" stroke="black" points="99.98,-456.78 99.32,-467.35 106.43,-459.5 99.98,-456.78"/>
</g>
<!-- soul -->
<g id="node8" class="node">
<title>soul</title>
<ellipse fill="none" stroke="black" cx="58.23" cy="-284.02" rx="31.74" ry="18"/>
<text text-anchor="middle" x="58.23" y="-279.34" font-family="Times,serif" font-size="14.00">soul</text>
</g>
<!-- lead to purity&#45;&gt;soul -->
<g id="edge5" class="edge">
<title>lead to purity&#45;&gt;soul</title>
<path fill="none" stroke="black" d="M124.01,-351.49C111.63,-338.79 94.8,-321.52 81.26,-307.63"/>
<polygon fill="black" stroke="black" points="84.21,-305.62 74.72,-300.91 79.2,-310.51 84.21,-305.62"/>
</g>
<!-- heart  -->
<g id="node11" class="node">
<title>heart </title>
<ellipse fill="none" stroke="black" cx="158.13" cy="-243.65" rx="41.21" ry="18"/>
<text text-anchor="middle" x="158.13" y="-238.97" font-family="Times,serif" font-size="14.00">heart </text>
</g>
<!-- lead to purity&#45;&gt;heart  -->
<g id="edge8" class="edge">
<title>lead to purity&#45;&gt;heart </title>
<path fill="none" stroke="black" d="M143.66,-350.88C146.43,-330.35 150.97,-296.7 154.23,-272.57"/>
<polygon fill="black" stroke="black" points="157.79,-273.29 155.66,-262.91 150.86,-272.36 157.79,-273.29"/>
</g>
<!-- not filled -->
<g id="node10" class="node">
<title>not filled</title>
<ellipse fill="none" stroke="black" cx="283.82" cy="-409.84" rx="55.42" ry="18"/>
<text text-anchor="middle" x="283.82" y="-405.17" font-family="Times,serif" font-size="14.00">not filled</text>
</g>
<!-- there are parts&#45;&gt;not filled -->
<g id="edge6" class="edge">
<title>there are parts&#45;&gt;not filled</title>
<path fill="none" stroke="black" d="M353.57,-448.87C343.5,-443.24 332.19,-436.91 321.66,-431.01"/>
<polygon fill="black" stroke="black" points="323.69,-427.58 313.26,-425.75 320.27,-433.69 323.69,-427.58"/>
</g>
<!-- filled  -->
<g id="node14" class="node">
<title>filled </title>
<ellipse fill="none" stroke="black" cx="382.94" cy="-597.5" rx="39.11" ry="18"/>
<text text-anchor="middle" x="382.94" y="-592.83" font-family="Times,serif" font-size="14.00">filled </text>
</g>
<!-- there are parts&#45;&gt;filled  -->
<g id="edge12" class="edge">
<title>there are parts&#45;&gt;filled </title>
<path fill="none" stroke="black" d="M384.06,-484.32C383.85,-506.1 383.48,-542.76 383.23,-568.45"/>
<polygon fill="black" stroke="black" points="379.72,-568.34 383.12,-578.38 386.72,-568.41 379.72,-568.34"/>
</g>
<!-- not filled&#45;&gt;lead to purity -->
<g id="edge7" class="edge">
<title>not filled&#45;&gt;lead to purity</title>
<path fill="none" stroke="black" d="M241.8,-397.85C229.17,-394.24 215.05,-390.21 201.47,-386.33"/>
<polygon fill="black" stroke="black" points="202.81,-382.79 192.23,-383.41 200.88,-389.52 202.81,-382.79"/>
</g>
<!-- what is filled with -->
<g id="node12" class="node">
<title>what is filled with</title>
<ellipse fill="none" stroke="black" cx="726.61" cy="-295.85" rx="100.66" ry="18"/>
<text text-anchor="middle" x="726.61" y="-291.17" font-family="Times,serif" font-size="14.00">what is filled with</text>
</g>
<!-- filled -->
<g id="node13" class="node">
<title>filled</title>
<ellipse fill="#ffffba" stroke="black" cx="608.42" cy="-339.85" rx="35.95" ry="18"/>
<text text-anchor="middle" x="608.42" y="-335.18" font-family="Times,serif" font-size="14.00">filled</text>
</g>
<!-- what is filled with&#45;&gt;filled -->
<g id="edge9" class="edge">
<title>what is filled with&#45;&gt;filled</title>
<path fill="none" stroke="black" d="M682.26,-312.36C670.95,-316.57 658.86,-321.08 647.81,-325.19"/>
<polygon fill="black" stroke="black" points="646.74,-322.22 638.59,-328.99 649.18,-328.78 646.74,-322.22"/>
</g>
<!-- the mouth say -->
<g id="node17" class="node">
<title>the mouth say</title>
<ellipse fill="none" stroke="black" cx="830.28" cy="-369.66" rx="82.77" ry="18"/>
<text text-anchor="middle" x="830.28" y="-364.99" font-family="Times,serif" font-size="14.00">the mouth say</text>
</g>
<!-- what is filled with&#45;&gt;the mouth say -->
<g id="edge15" class="edge">
<title>what is filled with&#45;&gt;the mouth say</title>
<path fill="none" stroke="black" d="M751.71,-313.72C765.3,-323.4 782.28,-335.49 796.98,-345.95"/>
<polygon fill="black" stroke="black" points="794.6,-349.26 804.78,-352.21 798.66,-343.56 794.6,-349.26"/>
</g>
<!-- filled&#45;&gt;temptation -->
<g id="edge10" class="edge">
<title>filled&#45;&gt;temptation</title>
<path fill="none" stroke="black" d="M591.18,-356.08C578.81,-367.73 561.91,-383.65 547.81,-396.92"/>
<polygon fill="black" stroke="black" points="545.77,-393.98 540.88,-403.38 550.56,-399.08 545.77,-393.98"/>
</g>
<!-- lead to sin -->
<g id="node15" class="node">
<title>lead to sin</title>
<ellipse fill="none" stroke="black" cx="382.26" cy="-718.35" rx="63.31" ry="18"/>
<text text-anchor="middle" x="382.26" y="-713.67" font-family="Times,serif" font-size="14.00">lead to sin</text>
</g>
<!-- filled &#45;&gt;lead to sin -->
<g id="edge13" class="edge">
<title>filled &#45;&gt;lead to sin</title>
<path fill="none" stroke="black" d="M382.84,-615.86C382.73,-635.4 382.55,-666.6 382.42,-689.45"/>
<polygon fill="black" stroke="black" points="378.92,-689.2 382.36,-699.22 385.92,-689.24 378.92,-689.2"/>
</g>
<!-- heart -->
<g id="node16" class="node">
<title>heart</title>
<ellipse fill="#ffffba" stroke="black" cx="774.03" cy="-182.78" rx="38.06" ry="18"/>
<text text-anchor="middle" x="774.03" y="-178.1" font-family="Times,serif" font-size="14.00">heart</text>
</g>
<!-- heart&#45;&gt;what is filled with -->
<g id="edge14" class="edge">
<title>heart&#45;&gt;what is filled with</title>
<path fill="none" stroke="black" d="M766.52,-200.69C758.96,-218.7 747.22,-246.72 738.42,-267.69"/>
<polygon fill="black" stroke="black" points="734.89,-266.07 734.25,-276.64 741.34,-268.77 734.89,-266.07"/>
</g>
<!-- from it come -->
<g id="node18" class="node">
<title>from it come</title>
<ellipse fill="none" stroke="black" cx="848.56" cy="-93.78" rx="74.88" ry="18"/>
<text text-anchor="middle" x="848.56" y="-89.1" font-family="Times,serif" font-size="14.00">from it come</text>
</g>
<!-- heart&#45;&gt;from it come -->
<g id="edge16" class="edge">
<title>heart&#45;&gt;from it come</title>
<path fill="none" stroke="black" d="M788.4,-165.62C799.22,-152.7 814.25,-134.75 826.57,-120.03"/>
<polygon fill="black" stroke="black" points="829.73,-122.71 833.47,-112.8 824.36,-118.22 829.73,-122.71"/>
</g>
<!-- sins -->
<g id="node19" class="node">
<title>sins</title>
<ellipse fill="none" stroke="black" cx="932.95" cy="-18" rx="31.22" ry="18"/>
<text text-anchor="middle" x="932.95" y="-13.32" font-family="Times,serif" font-size="14.00">sins</text>
</g>
<!-- from it come&#45;&gt;sins -->
<g id="edge17" class="edge">
<title>from it come&#45;&gt;sins</title>
<path fill="none" stroke="black" d="M868.13,-76.2C879.96,-65.59 895.14,-51.95 907.84,-40.54"/>
<polygon fill="black" stroke="black" points="909.67,-43.71 914.77,-34.43 904.99,-38.5 909.67,-43.71"/>
</g>
</g>
</svg>
