<svg width="633" height="519" viewBox="0 0 633 519" fill="none" xmlns="http://www.w3.org/2000/svg">
<rect opacity="0.25" x="397" y="136" width="235.594" height="235.594" rx="63" fill="#D9D9D9"/>
<path d="M457.753 238V201.636H480.303V206.359H463.239V217.439H478.687V222.144H463.239V238H457.753ZM486.282 238V210.727H491.413V215.06H491.697C492.194 213.592 493.07 212.438 494.325 211.597C495.592 210.745 497.024 210.319 498.622 210.319C498.953 210.319 499.344 210.331 499.794 210.354C500.256 210.378 500.617 210.408 500.877 210.443V215.521C500.664 215.462 500.285 215.397 499.741 215.326C499.196 215.243 498.652 215.202 498.107 215.202C496.852 215.202 495.734 215.468 494.751 216.001C493.781 216.522 493.011 217.25 492.443 218.185C491.875 219.108 491.591 220.161 491.591 221.345V238H486.282ZM515.983 238.55C513.426 238.55 511.194 237.964 509.289 236.793C507.383 235.621 505.903 233.981 504.85 231.874C503.796 229.767 503.27 227.305 503.27 224.488C503.27 221.659 503.796 219.185 504.85 217.066C505.903 214.947 507.383 213.302 509.289 212.13C511.194 210.958 513.426 210.372 515.983 210.372C518.539 210.372 520.771 210.958 522.676 212.13C524.582 213.302 526.062 214.947 527.115 217.066C528.169 219.185 528.696 221.659 528.696 224.488C528.696 227.305 528.169 229.767 527.115 231.874C526.062 233.981 524.582 235.621 522.676 236.793C520.771 237.964 518.539 238.55 515.983 238.55ZM516 234.094C517.658 234.094 519.031 233.656 520.12 232.78C521.209 231.904 522.014 230.738 522.534 229.282C523.067 227.826 523.333 226.222 523.333 224.47C523.333 222.73 523.067 221.132 522.534 219.676C522.014 218.208 521.209 217.031 520.12 216.143C519.031 215.255 517.658 214.811 516 214.811C514.331 214.811 512.946 215.255 511.846 216.143C510.757 217.031 509.946 218.208 509.413 219.676C508.892 221.132 508.632 222.73 508.632 224.47C508.632 226.222 508.892 227.826 509.413 229.282C509.946 230.738 510.757 231.904 511.846 232.78C512.946 233.656 514.331 234.094 516 234.094ZM534.622 238V210.727H539.718V215.166H540.055C540.623 213.663 541.552 212.491 542.843 211.651C544.133 210.798 545.677 210.372 547.477 210.372C549.3 210.372 550.827 210.798 552.058 211.651C553.301 212.503 554.218 213.675 554.81 215.166H555.094C555.745 213.71 556.781 212.55 558.201 211.686C559.622 210.81 561.314 210.372 563.279 210.372C565.753 210.372 567.771 211.147 569.334 212.698C570.908 214.249 571.695 216.587 571.695 219.712V238H566.387V220.209C566.387 218.362 565.883 217.025 564.877 216.196C563.871 215.367 562.67 214.953 561.273 214.953C559.545 214.953 558.201 215.486 557.242 216.551C556.284 217.605 555.804 218.96 555.804 220.617V238H550.513V219.871C550.513 218.392 550.051 217.202 549.128 216.303C548.205 215.403 547.003 214.953 545.524 214.953C544.517 214.953 543.588 215.219 542.736 215.752C541.896 216.273 541.215 217.001 540.694 217.936C540.185 218.871 539.931 219.954 539.931 221.185V238H534.622ZM438.02 299L429.994 271.727H435.481L440.825 291.756H441.091L446.454 271.727H451.94L457.267 291.667H457.533L462.842 271.727H468.329L460.321 299H454.905L449.366 279.309H448.957L443.417 299H438.02ZM478.676 282.807V299H473.367V262.636H478.605V276.166H478.942C479.581 274.698 480.558 273.532 481.872 272.668C483.186 271.804 484.902 271.372 487.021 271.372C488.891 271.372 490.525 271.757 491.921 272.526C493.33 273.296 494.419 274.444 495.188 275.971C495.97 277.486 496.36 279.38 496.36 281.653V299H491.051V282.292C491.051 280.291 490.536 278.741 489.507 277.64C488.477 276.527 487.045 275.971 485.21 275.971C483.955 275.971 482.831 276.237 481.836 276.77C480.854 277.303 480.078 278.084 479.51 279.114C478.954 280.132 478.676 281.363 478.676 282.807ZM514.933 299.55C512.376 299.55 510.145 298.964 508.239 297.793C506.333 296.621 504.853 294.981 503.8 292.874C502.746 290.767 502.22 288.305 502.22 285.488C502.22 282.659 502.746 280.185 503.8 278.066C504.853 275.947 506.333 274.302 508.239 273.13C510.145 271.958 512.376 271.372 514.933 271.372C517.49 271.372 519.721 271.958 521.627 273.13C523.532 274.302 525.012 275.947 526.066 278.066C527.119 280.185 527.646 282.659 527.646 285.488C527.646 288.305 527.119 290.767 526.066 292.874C525.012 294.981 523.532 296.621 521.627 297.793C519.721 298.964 517.49 299.55 514.933 299.55ZM514.951 295.094C516.608 295.094 517.981 294.656 519.07 293.78C520.159 292.904 520.964 291.738 521.485 290.282C522.017 288.826 522.284 287.222 522.284 285.47C522.284 283.73 522.017 282.132 521.485 280.676C520.964 279.208 520.159 278.031 519.07 277.143C517.981 276.255 516.608 275.811 514.951 275.811C513.282 275.811 511.897 276.255 510.796 277.143C509.707 278.031 508.896 279.208 508.363 280.676C507.842 282.132 507.582 283.73 507.582 285.47C507.582 287.222 507.842 288.826 508.363 290.282C508.896 291.738 509.707 292.904 510.796 293.78C511.897 294.656 513.282 295.094 514.951 295.094ZM533.572 299V271.727H538.668V276.166H539.005C539.573 274.663 540.502 273.491 541.793 272.651C543.083 271.798 544.628 271.372 546.427 271.372C548.25 271.372 549.777 271.798 551.008 272.651C552.251 273.503 553.168 274.675 553.76 276.166H554.044C554.695 274.71 555.731 273.55 557.151 272.686C558.572 271.81 560.265 271.372 562.229 271.372C564.703 271.372 566.722 272.147 568.284 273.698C569.859 275.249 570.646 277.587 570.646 280.712V299H565.337V281.209C565.337 279.362 564.834 278.025 563.828 277.196C562.821 276.367 561.62 275.953 560.223 275.953C558.495 275.953 557.151 276.486 556.193 277.551C555.234 278.605 554.754 279.96 554.754 281.617V299H549.463V280.871C549.463 279.392 549.002 278.202 548.078 277.303C547.155 276.403 545.953 275.953 544.474 275.953C543.468 275.953 542.538 276.219 541.686 276.752C540.846 277.273 540.165 278.001 539.644 278.936C539.135 279.871 538.881 280.954 538.881 282.185V299H533.572ZM583.567 288.542V288.205C583.591 286.003 583.81 284.251 584.224 282.949C584.65 281.647 585.254 280.593 586.035 279.788C586.817 278.983 587.758 278.25 588.859 277.587C589.569 277.137 590.208 276.634 590.776 276.077C591.344 275.521 591.794 274.882 592.126 274.16C592.457 273.438 592.623 272.639 592.623 271.763C592.623 270.709 592.374 269.798 591.877 269.028C591.38 268.259 590.717 267.667 589.888 267.253C589.072 266.827 588.16 266.614 587.154 266.614C586.243 266.614 585.373 266.803 584.544 267.182C583.715 267.561 583.029 268.152 582.484 268.957C581.94 269.75 581.626 270.774 581.543 272.029H576.146C576.228 269.898 576.767 268.099 577.761 266.631C578.756 265.152 580.07 264.033 581.703 263.276C583.348 262.518 585.165 262.139 587.154 262.139C589.332 262.139 591.238 262.548 592.871 263.364C594.505 264.169 595.771 265.3 596.671 266.756C597.583 268.2 598.038 269.887 598.038 271.816C598.038 273.142 597.831 274.337 597.417 275.403C597.003 276.456 596.411 277.397 595.641 278.226C594.884 279.054 593.972 279.788 592.907 280.428C591.901 281.055 591.084 281.706 590.457 282.381C589.841 283.055 589.391 283.854 589.107 284.778C588.823 285.701 588.669 286.843 588.646 288.205V288.542H583.567ZM586.248 299.337C585.278 299.337 584.443 298.994 583.745 298.308C583.047 297.609 582.697 296.769 582.697 295.786C582.697 294.816 583.047 293.987 583.745 293.3C584.443 292.602 585.278 292.253 586.248 292.253C587.207 292.253 588.036 292.602 588.734 293.3C589.445 293.987 589.8 294.816 589.8 295.786C589.8 296.437 589.634 297.035 589.302 297.58C588.983 298.112 588.557 298.538 588.024 298.858C587.491 299.178 586.9 299.337 586.248 299.337Z" fill="black"/>
<rect opacity="0.25" x="132" y="283" width="235.594" height="235.594" rx="63" fill="#D9D9D9"/>
<path d="M189.213 378V338.727H213.567V343.828H195.138V355.794H211.822V360.876H195.138V378H189.213ZM220.024 378V348.545H225.566V353.224H225.873C226.41 351.639 227.356 350.393 228.711 349.485C230.079 348.565 231.626 348.104 233.352 348.104C233.71 348.104 234.132 348.117 234.617 348.143C235.116 348.168 235.506 348.2 235.787 348.239V353.723C235.557 353.659 235.148 353.589 234.56 353.512C233.972 353.423 233.384 353.378 232.796 353.378C231.441 353.378 230.232 353.665 229.171 354.241C228.123 354.803 227.292 355.589 226.678 356.599C226.065 357.597 225.758 358.734 225.758 360.013V378H220.024ZM252.101 378.594C249.34 378.594 246.93 377.962 244.872 376.696C242.814 375.43 241.216 373.66 240.078 371.384C238.94 369.109 238.371 366.45 238.371 363.407C238.371 360.352 238.94 357.68 240.078 355.391C241.216 353.103 242.814 351.326 244.872 350.06C246.93 348.795 249.34 348.162 252.101 348.162C254.863 348.162 257.272 348.795 259.331 350.06C261.389 351.326 262.987 353.103 264.125 355.391C265.262 357.68 265.831 360.352 265.831 363.407C265.831 366.45 265.262 369.109 264.125 371.384C262.987 373.66 261.389 375.43 259.331 376.696C257.272 377.962 254.863 378.594 252.101 378.594ZM252.12 373.781C253.91 373.781 255.393 373.308 256.569 372.362C257.745 371.416 258.615 370.157 259.177 368.585C259.752 367.012 260.04 365.28 260.04 363.388C260.04 361.509 259.752 359.783 259.177 358.21C258.615 356.625 257.745 355.353 256.569 354.394C255.393 353.435 253.91 352.956 252.12 352.956C250.318 352.956 248.822 353.435 247.633 354.394C246.457 355.353 245.581 356.625 245.006 358.21C244.444 359.783 244.162 361.509 244.162 363.388C244.162 365.28 244.444 367.012 245.006 368.585C245.581 370.157 246.457 371.416 247.633 372.362C248.822 373.308 250.318 373.781 252.12 373.781ZM272.231 378V348.545H277.735V353.339H278.099C278.713 351.716 279.716 350.45 281.11 349.543C282.503 348.622 284.172 348.162 286.115 348.162C288.084 348.162 289.733 348.622 291.062 349.543C292.405 350.463 293.395 351.729 294.035 353.339H294.341C295.045 351.767 296.163 350.514 297.697 349.581C299.231 348.635 301.059 348.162 303.182 348.162C305.854 348.162 308.033 348.999 309.721 350.674C311.421 352.349 312.271 354.874 312.271 358.249V378H306.537V358.786C306.537 356.791 305.994 355.347 304.907 354.452C303.821 353.557 302.523 353.109 301.015 353.109C299.148 353.109 297.697 353.685 296.662 354.835C295.626 355.973 295.108 357.437 295.108 359.227V378H289.394V358.421C289.394 356.823 288.895 355.538 287.898 354.567C286.901 353.595 285.604 353.109 284.006 353.109C282.919 353.109 281.915 353.397 280.995 353.972C280.087 354.535 279.352 355.321 278.79 356.331C278.24 357.341 277.965 358.511 277.965 359.84V378H272.231ZM220.063 416.134C219.692 414.971 219.193 413.929 218.567 413.009C217.953 412.075 217.218 411.283 216.362 410.631C215.505 409.966 214.527 409.461 213.428 409.116C212.341 408.771 211.146 408.598 209.842 408.598C207.63 408.598 205.636 409.167 203.859 410.305C202.082 411.442 200.676 413.111 199.64 415.31C198.617 417.496 198.106 420.174 198.106 423.344C198.106 426.528 198.624 429.219 199.659 431.418C200.695 433.616 202.114 435.285 203.916 436.423C205.719 437.56 207.771 438.129 210.072 438.129C212.207 438.129 214.067 437.695 215.652 436.825C217.25 435.956 218.484 434.729 219.353 433.143C220.235 431.545 220.676 429.666 220.676 427.506L222.21 427.793H210.973V422.903H226.41V427.371C226.41 430.67 225.707 433.533 224.301 435.962C222.907 438.379 220.977 440.245 218.509 441.562C216.055 442.879 213.242 443.537 210.072 443.537C206.518 443.537 203.399 442.719 200.714 441.082C198.042 439.446 195.958 437.126 194.463 434.121C192.967 431.104 192.219 427.525 192.219 423.383C192.219 420.251 192.654 417.438 193.523 414.945C194.392 412.452 195.613 410.337 197.186 408.598C198.771 406.847 200.631 405.511 202.766 404.59C204.914 403.657 207.259 403.19 209.803 403.19C211.926 403.19 213.901 403.504 215.729 404.13C217.57 404.756 219.206 405.645 220.638 406.795C222.083 407.946 223.278 409.314 224.224 410.899C225.17 412.472 225.809 414.217 226.142 416.134H220.063ZM245.879 443.594C243.117 443.594 240.707 442.962 238.649 441.696C236.591 440.43 234.993 438.66 233.855 436.384C232.717 434.109 232.148 431.45 232.148 428.407C232.148 425.352 232.717 422.68 233.855 420.391C234.993 418.103 236.591 416.326 238.649 415.06C240.707 413.795 243.117 413.162 245.879 413.162C248.64 413.162 251.05 413.795 253.108 415.06C255.166 416.326 256.764 418.103 257.902 420.391C259.04 422.68 259.609 425.352 259.609 428.407C259.609 431.45 259.04 434.109 257.902 436.384C256.764 438.66 255.166 440.43 253.108 441.696C251.05 442.962 248.64 443.594 245.879 443.594ZM245.898 438.781C247.688 438.781 249.17 438.308 250.347 437.362C251.523 436.416 252.392 435.157 252.955 433.585C253.53 432.012 253.817 430.28 253.817 428.388C253.817 426.509 253.53 424.783 252.955 423.21C252.392 421.625 251.523 420.353 250.347 419.394C249.17 418.435 247.688 417.956 245.898 417.956C244.095 417.956 242.599 418.435 241.411 419.394C240.234 420.353 239.359 421.625 238.783 423.21C238.221 424.783 237.94 426.509 237.94 428.388C237.94 430.28 238.221 432.012 238.783 433.585C239.359 435.157 240.234 436.416 241.411 437.362C242.599 438.308 244.095 438.781 245.898 438.781ZM277.035 443.575C274.657 443.575 272.535 442.968 270.669 441.754C268.815 440.526 267.357 438.781 266.296 436.518C265.248 434.243 264.724 431.513 264.724 428.33C264.724 425.147 265.254 422.424 266.316 420.161C267.389 417.898 268.86 416.166 270.726 414.964C272.593 413.763 274.708 413.162 277.073 413.162C278.901 413.162 280.372 413.469 281.484 414.082C282.609 414.683 283.478 415.386 284.092 416.192C284.718 416.997 285.204 417.707 285.549 418.32H285.894V403.727H291.628V443H286.029V438.417H285.549C285.204 439.043 284.705 439.759 284.053 440.565C283.414 441.37 282.532 442.073 281.407 442.674C280.282 443.275 278.825 443.575 277.035 443.575ZM278.301 438.685C279.95 438.685 281.343 438.251 282.481 437.381C283.632 436.499 284.501 435.278 285.089 433.719C285.69 432.159 285.99 430.344 285.99 428.273C285.99 426.227 285.696 424.437 285.108 422.903C284.52 421.369 283.657 420.174 282.519 419.317C281.382 418.461 279.975 418.033 278.301 418.033C276.575 418.033 275.137 418.48 273.986 419.375C272.835 420.27 271.966 421.491 271.378 423.038C270.803 424.585 270.515 426.33 270.515 428.273C270.515 430.241 270.809 432.012 271.397 433.585C271.985 435.157 272.855 436.403 274.005 437.324C275.169 438.232 276.6 438.685 278.301 438.685ZM307.041 403.727L306.542 431.705H301.23L300.732 403.727H307.041ZM303.896 443.364C302.835 443.364 301.927 442.994 301.173 442.252C300.419 441.498 300.048 440.59 300.061 439.529C300.048 438.481 300.419 437.586 301.173 436.844C301.927 436.09 302.835 435.713 303.896 435.713C304.931 435.713 305.826 436.09 306.581 436.844C307.335 437.586 307.718 438.481 307.731 439.529C307.718 440.232 307.533 440.878 307.175 441.466C306.83 442.041 306.37 442.501 305.794 442.847C305.219 443.192 304.586 443.364 303.896 443.364Z" fill="black"/>
<rect opacity="0.25" width="235.594" height="235.594" rx="63" fill="#D9D9D9"/>
<path d="M69.1328 94H64.0078L75.5234 62H81.1016L92.6172 94H87.4922L78.4453 67.8125H78.1953L69.1328 94ZM69.9922 81.4687H86.6172V85.5312H69.9922V81.4687ZM108.883 94V62H113.711V89.8438H128.211V94H108.883ZM143.453 94.4844C141.203 94.4844 139.24 93.9688 137.563 92.9375C135.885 91.9062 134.583 90.4635 133.656 88.6094C132.729 86.7552 132.266 84.5885 132.266 82.1094C132.266 79.6198 132.729 77.4427 133.656 75.5781C134.583 73.7135 135.885 72.2656 137.563 71.2344C139.24 70.2031 141.203 69.6875 143.453 69.6875C145.703 69.6875 147.667 70.2031 149.344 71.2344C151.021 72.2656 152.323 73.7135 153.25 75.5781C154.177 77.4427 154.641 79.6198 154.641 82.1094C154.641 84.5885 154.177 86.7552 153.25 88.6094C152.323 90.4635 151.021 91.9062 149.344 92.9375C147.667 93.9688 145.703 94.4844 143.453 94.4844ZM143.469 90.5625C144.927 90.5625 146.135 90.1771 147.094 89.4062C148.052 88.6354 148.76 87.6094 149.219 86.3281C149.688 85.0469 149.922 83.6354 149.922 82.0937C149.922 80.5625 149.688 79.1562 149.219 77.875C148.76 76.5833 148.052 75.5469 147.094 74.7656C146.135 73.9844 144.927 73.5937 143.469 73.5937C142 73.5937 140.781 73.9844 139.813 74.7656C138.854 75.5469 138.141 76.5833 137.672 77.875C137.214 79.1562 136.984 80.5625 136.984 82.0937C136.984 83.6354 137.214 85.0469 137.672 86.3281C138.141 87.6094 138.854 88.6354 139.813 89.4062C140.781 90.1771 142 90.5625 143.469 90.5625ZM171.059 70V73.75H157.949V70H171.059ZM161.465 64.25H166.137V86.9531C166.137 87.8594 166.272 88.5417 166.543 89C166.814 89.4479 167.163 89.7552 167.59 89.9219C168.027 90.0781 168.501 90.1562 169.012 90.1562C169.387 90.1562 169.715 90.1302 169.996 90.0781C170.277 90.026 170.496 89.9844 170.652 89.9531L171.496 93.8125C171.225 93.9167 170.84 94.0208 170.34 94.125C169.84 94.2396 169.215 94.3021 168.465 94.3125C167.236 94.3333 166.09 94.1146 165.027 93.6562C163.965 93.1979 163.105 92.4896 162.449 91.5312C161.793 90.5729 161.465 89.3698 161.465 87.9219V64.25ZM66.6035 147.484C64.3535 147.484 62.39 146.969 60.7129 145.937C59.0358 144.906 57.7337 143.464 56.8066 141.609C55.8796 139.755 55.416 137.589 55.416 135.109C55.416 132.62 55.8796 130.443 56.8066 128.578C57.7337 126.714 59.0358 125.266 60.7129 124.234C62.39 123.203 64.3535 122.688 66.6035 122.688C68.8535 122.688 70.8171 123.203 72.4941 124.234C74.1712 125.266 75.4733 126.714 76.4004 128.578C77.3275 130.443 77.791 132.62 77.791 135.109C77.791 137.589 77.3275 139.755 76.4004 141.609C75.4733 143.464 74.1712 144.906 72.4941 145.937C70.8171 146.969 68.8535 147.484 66.6035 147.484ZM66.6191 143.562C68.0775 143.562 69.2858 143.177 70.2441 142.406C71.2025 141.635 71.9108 140.609 72.3691 139.328C72.8379 138.047 73.0723 136.635 73.0723 135.094C73.0723 133.562 72.8379 132.156 72.3691 130.875C71.9108 129.583 71.2025 128.547 70.2441 127.766C69.2858 126.984 68.0775 126.594 66.6191 126.594C65.1504 126.594 63.9316 126.984 62.9629 127.766C62.0046 128.547 61.291 129.583 60.8223 130.875C60.3639 132.156 60.1348 133.562 60.1348 135.094C60.1348 136.635 60.3639 138.047 60.8223 139.328C61.291 140.609 62.0046 141.635 62.9629 142.406C63.9316 143.177 65.1504 143.562 66.6191 143.562ZM94.4277 123V126.75H80.8652V123H94.4277ZM84.584 147V120.219C84.584 118.719 84.9121 117.474 85.5684 116.484C86.2246 115.484 87.0944 114.74 88.1777 114.25C89.2611 113.75 90.4382 113.5 91.709 113.5C92.6465 113.5 93.4486 113.578 94.1152 113.734C94.7819 113.88 95.2767 114.016 95.5996 114.141L94.5059 117.922C94.2871 117.859 94.0059 117.786 93.6621 117.703C93.3184 117.609 92.9017 117.562 92.4121 117.562C91.2767 117.562 90.4642 117.844 89.9746 118.406C89.4954 118.969 89.2559 119.781 89.2559 120.844V147H84.584ZM123.705 115H128.518V137.687C128.518 139.74 128.111 141.495 127.299 142.953C126.497 144.411 125.367 145.526 123.908 146.297C122.45 147.057 120.742 147.437 118.783 147.437C116.981 147.437 115.361 147.109 113.924 146.453C112.497 145.797 111.367 144.844 110.533 143.594C109.71 142.333 109.299 140.802 109.299 139H114.096C114.096 139.885 114.299 140.651 114.705 141.297C115.122 141.943 115.689 142.448 116.408 142.812C117.137 143.167 117.971 143.344 118.908 143.344C119.929 143.344 120.794 143.13 121.502 142.703C122.221 142.266 122.768 141.625 123.143 140.781C123.518 139.937 123.705 138.906 123.705 137.687V115ZM145.279 147.484C143.029 147.484 141.066 146.969 139.389 145.937C137.712 144.906 136.41 143.464 135.482 141.609C134.555 139.755 134.092 137.589 134.092 135.109C134.092 132.62 134.555 130.443 135.482 128.578C136.41 126.714 137.712 125.266 139.389 124.234C141.066 123.203 143.029 122.688 145.279 122.688C147.529 122.688 149.493 123.203 151.17 124.234C152.847 125.266 154.149 126.714 155.076 128.578C156.003 130.443 156.467 132.62 156.467 135.109C156.467 137.589 156.003 139.755 155.076 141.609C154.149 143.464 152.847 144.906 151.17 145.937C149.493 146.969 147.529 147.484 145.279 147.484ZM145.295 143.562C146.753 143.562 147.962 143.177 148.92 142.406C149.878 141.635 150.587 140.609 151.045 139.328C151.514 138.047 151.748 136.635 151.748 135.094C151.748 133.562 151.514 132.156 151.045 130.875C150.587 129.583 149.878 128.547 148.92 127.766C147.962 126.984 146.753 126.594 145.295 126.594C143.826 126.594 142.607 126.984 141.639 127.766C140.68 128.547 139.967 129.583 139.498 130.875C139.04 132.156 138.811 133.562 138.811 135.094C138.811 136.635 139.04 138.047 139.498 139.328C139.967 140.609 140.68 141.635 141.639 142.406C142.607 143.177 143.826 143.562 145.295 143.562ZM163.818 156C163.12 156 162.485 155.943 161.912 155.828C161.339 155.724 160.912 155.609 160.631 155.484L161.756 151.656C162.61 151.885 163.37 151.984 164.037 151.953C164.704 151.922 165.292 151.672 165.803 151.203C166.324 150.734 166.782 149.969 167.178 148.906L167.756 147.313L158.975 123H163.975L170.053 141.625H170.303L176.381 123H181.396L171.506 150.203C171.048 151.453 170.464 152.51 169.756 153.375C169.048 154.25 168.204 154.906 167.225 155.344C166.245 155.781 165.11 156 163.818 156Z" fill="black"/>
</svg>

